{"glyphs":{":":{"x_min":0,"x_max":281,"ha":281,"o":"m 56 346 q 50 362 50 380 q 50 398 56 414 l 56 800 l 64 807 l 216 807 l 224 800 l 224 417 q 227 408 229 399 q 231 390 231 380 q 231 370 229 361 q 227 352 224 344 l 224 126 q 227 118 229 109 q 231 100 231 90 q 231 80 229 71 q 227 62 224 54 l 224 14 l 216 6 l 174 6 q 158 0 140 0 q 122 0 106 6 l 64 6 l 56 14 l 56 56 q 50 72 50 90 q 50 108 56 124 z m 70 437 q 82 454 101 462 q 120 470 140 470 q 162 470 179 462 q 196 454 210 438 l 210 794 l 70 794 z m 140 290 q 120 290 101 298 q 82 306 70 324 l 70 147 q 82 164 101 172 q 120 180 140 180 q 182 180 210 148 l 210 322 q 197 306 179 298 q 160 290 140 290 z m 140 316 q 154 316 165 321 q 176 326 185 335 q 194 344 199 355 q 204 366 204 380 q 204 393 200 405 q 194 416 186 425 q 177 434 165 439 q 154 444 140 444 q 128 444 116 439 q 104 434 95 425 q 86 416 82 405 q 76 393 76 380 q 76 366 82 355 q 86 343 95 334 q 104 326 116 321 q 128 316 140 316 z m 140 26 q 154 26 165 32 q 176 36 185 45 q 194 54 199 66 q 204 77 204 90 q 204 103 199 114 q 194 126 185 135 q 176 144 165 149 q 154 154 140 154 q 128 154 116 149 q 104 144 95 135 q 86 126 82 115 q 76 103 76 90 q 76 77 82 65 q 86 54 95 45 q 104 36 116 32 q 128 26 140 26 z m 84 20 l 84 20 q 80 22 77 26 q 73 30 70 34 l 70 20 z m 198 20 l 210 20 l 210 32 q 204 26 198 20 z"},"$":{"x_min":0,"x_max":559,"ha":559,"o":"m 509 532 l 502 524 l 502 334 q 502 331 503 326 q 504 322 506 318 q 509 301 509 282 q 509 263 506 246 q 505 242 504 238 q 502 232 502 230 l 502 13 l 496 6 l 337 6 l 330 0 l 228 0 l 222 6 l 64 6 l 57 13 l 57 230 q 57 232 56 238 q 54 242 54 246 q 50 263 50 282 l 57 290 l 57 478 q 57 482 56 487 q 54 492 54 495 q 50 512 50 531 q 50 550 54 567 q 54 570 56 575 q 57 580 57 584 l 57 800 l 64 806 l 222 806 l 228 813 l 330 813 l 337 806 l 496 806 l 502 800 l 502 584 q 502 580 503 576 q 504 572 505 569 q 509 550 509 532 z m 329 702 l 317 715 l 317 786 l 242 786 l 242 715 l 230 702 q 198 698 170 683 q 142 668 121 645 q 100 622 88 593 q 76 564 76 531 q 76 498 88 469 q 100 440 121 417 q 142 394 170 379 q 198 364 230 360 l 242 348 l 242 221 l 224 208 q 205 214 190 231 q 176 248 172 269 l 78 269 q 80 238 92 211 q 105 184 126 163 q 146 142 174 128 q 200 115 230 112 l 242 98 l 242 26 l 317 26 l 317 98 l 329 112 q 361 115 389 130 q 417 145 438 168 q 458 191 470 220 q 482 250 482 282 q 482 314 470 344 q 458 373 438 396 q 417 419 389 434 q 361 448 329 452 l 317 466 l 317 591 l 336 604 q 354 595 366 580 q 378 564 382 544 l 482 544 q 480 576 467 602 q 454 630 434 650 q 414 671 386 684 q 360 698 329 702 z m 488 194 q 466 150 429 123 q 392 95 344 86 l 344 20 l 488 20 z m 216 20 l 216 86 q 168 95 130 123 q 92 150 70 194 l 70 20 z m 344 726 q 392 718 429 690 q 466 662 488 618 l 488 793 l 344 793 z m 70 618 q 92 662 130 690 q 168 718 216 726 l 216 793 l 70 793 z m 70 296 l 184 296 l 198 282 q 198 271 202 261 q 206 250 216 244 l 216 336 q 168 344 130 372 q 92 400 70 444 z m 488 518 l 370 518 l 357 532 q 357 540 354 550 q 350 560 344 566 l 344 478 q 392 468 429 441 q 466 414 488 370 z m 224 605 l 242 592 l 242 470 l 224 458 q 200 466 186 486 q 172 506 172 532 q 172 557 186 577 q 201 597 224 605 z m 336 210 l 317 222 l 317 342 l 336 354 q 358 346 371 326 q 384 306 384 282 q 384 258 371 239 q 358 219 336 210 z m 216 570 q 207 564 202 553 q 198 542 198 532 q 198 521 202 510 q 207 500 216 493 z m 344 248 q 350 254 354 264 q 357 272 357 282 q 357 292 353 300 q 350 308 344 317 z"},"?":{"x_min":0,"x_max":597,"ha":597,"o":"m 333 6 q 317 0 300 0 q 282 0 266 6 l 64 6 l 56 14 l 56 558 l 50 565 q 50 574 51 584 q 52 594 52 603 q 54 607 55 612 q 56 618 56 622 l 56 800 l 64 807 l 241 807 q 245 807 249 808 q 254 810 258 810 q 276 814 298 814 q 316 814 336 810 q 340 810 346 808 q 351 807 355 807 l 534 807 l 540 800 l 540 622 q 540 618 541 614 q 542 609 543 605 q 544 595 546 585 q 546 576 546 566 q 546 546 544 527 q 542 523 541 518 q 540 512 540 508 l 540 14 l 534 6 z m 356 20 l 526 20 l 526 468 q 510 428 485 400 q 460 373 424 350 q 410 342 401 330 q 392 318 390 301 l 376 290 l 222 290 l 209 304 q 213 368 245 420 q 277 472 332 505 l 332 506 q 348 516 358 531 q 367 546 367 566 q 367 574 364 583 q 362 591 358 599 l 358 599 q 348 616 332 624 q 316 633 298 633 q 284 633 272 628 q 260 622 250 613 q 241 604 236 591 q 230 578 230 565 l 217 552 l 70 552 l 70 20 l 243 20 q 226 32 218 50 q 209 69 209 90 q 209 108 216 125 q 224 142 236 154 q 248 166 264 173 q 281 180 300 180 q 318 180 334 173 q 351 166 363 154 q 376 142 383 125 q 390 108 390 90 q 390 68 382 51 q 373 34 356 20 z m 298 660 q 318 660 335 652 q 352 644 365 632 q 378 619 386 602 q 394 584 394 565 q 394 538 381 517 q 369 496 346 482 l 346 482 q 324 469 305 451 q 286 434 272 412 q 258 390 249 366 q 240 342 237 316 l 366 316 q 378 352 410 372 l 410 372 q 436 388 456 408 q 477 429 492 454 q 506 479 514 507 q 521 536 521 566 q 521 612 503 652 q 484 692 454 722 q 423 752 382 770 q 342 787 296 787 q 268 787 240 779 q 212 771 188 756 l 187 756 q 163 742 144 723 q 124 704 110 681 q 96 658 87 632 q 78 606 77 578 l 204 578 q 208 595 216 610 q 224 625 236 636 q 248 647 264 653 q 280 660 298 660 z m 300 26 q 312 26 324 32 q 336 36 344 45 q 353 54 358 66 q 364 77 364 90 q 364 103 358 114 q 353 126 344 135 q 336 144 324 149 q 312 154 300 154 q 286 154 275 149 q 263 144 254 135 q 246 126 240 115 q 236 103 236 90 q 236 77 240 65 q 246 54 254 45 q 263 36 275 32 q 286 26 300 26 z m 201 794 l 70 794 l 70 662 q 90 709 122 741 q 156 772 201 794 z m 526 794 l 396 794 q 487 754 526 662 z"},"<":{"x_min":0,"x_max":482,"ha":482,"o":"m 50 314 l 57 324 l 57 800 l 64 807 l 420 807 l 426 800 l 426 461 l 432 456 l 432 299 l 426 289 l 426 180 l 432 170 l 432 14 l 414 1 l 400 6 l 64 6 l 57 14 l 57 145 l 50 155 z m 70 332 l 412 468 l 412 794 l 70 794 z m 412 282 l 294 234 l 412 188 z m 367 20 l 70 138 l 70 20 z m 77 306 l 77 164 l 406 33 l 406 162 l 254 222 l 254 247 l 406 308 l 406 436 z"},"'":{"x_min":0,"x_max":279,"ha":279,"o":"m 224 14 l 216 6 l 64 6 l 56 14 l 56 574 l 50 580 l 50 800 l 64 814 l 216 814 l 229 796 q 229 796 228 793 q 227 790 226 787 q 225 784 224 782 l 224 779 z m 210 740 l 152 576 l 140 566 l 70 566 l 70 20 l 210 20 z m 198 787 l 76 787 l 76 594 l 130 594 z"},"=":{"x_min":0,"x_max":370,"ha":370,"o":"m 70 20 l 300 20 l 300 185 l 70 185 z m 70 316 l 300 316 l 300 366 l 70 366 z m 56 800 l 70 807 l 307 807 l 314 800 l 314 490 l 320 484 l 320 380 l 314 372 l 314 309 l 320 302 l 320 198 l 314 192 l 314 14 l 307 6 l 64 6 l 56 14 l 56 192 l 50 198 l 50 302 l 56 309 l 56 372 l 50 380 l 50 484 l 56 490 z m 300 794 l 70 794 l 70 497 l 300 497 z m 76 392 l 294 392 l 294 470 l 76 470 z m 76 212 l 294 212 l 294 289 l 76 289 z"},"a":{"x_min":0,"x_max":912,"ha":912,"o":"m 62 807 l 366 807 l 376 814 l 536 814 l 546 807 l 850 807 l 856 800 l 856 32 l 862 18 l 850 0 l 692 0 l 682 6 l 230 6 l 220 0 l 62 0 l 50 18 l 56 32 l 56 800 z m 552 794 l 843 66 l 843 794 z m 675 20 l 618 164 l 294 164 l 236 20 z m 69 66 l 359 794 l 69 794 z m 527 787 l 385 787 l 82 26 l 211 26 l 272 182 l 285 190 l 627 190 l 639 182 l 701 26 l 830 26 z m 456 570 l 354 314 l 558 314 z m 468 610 l 590 306 l 577 288 l 335 288 l 322 306 l 444 610 z"},"L":{"x_min":0,"x_max":616,"ha":616,"o":"m 546 182 l 546 796 l 224 796 l 224 182 z m 50 16 l 50 802 l 64 816 l 212 816 l 218 809 l 552 809 l 559 802 l 559 176 l 566 169 l 566 16 l 552 2 l 64 2 z m 76 789 l 76 28 l 539 28 l 539 156 l 212 156 l 198 169 l 198 789 z"},"3":{"x_min":0,"x_max":597,"ha":597,"o":"m 56 555 l 50 562 l 50 564 q 50 584 53 602 q 54 607 55 612 q 56 618 56 622 l 56 800 l 64 807 l 241 807 q 245 807 250 808 q 254 810 258 810 q 268 812 278 813 q 288 814 298 814 q 318 814 338 810 q 342 810 347 808 q 352 807 356 807 l 533 807 l 540 800 l 540 625 q 540 620 541 615 q 542 610 544 606 q 545 596 546 585 q 547 575 547 565 q 547 544 544 524 q 542 520 541 515 q 540 510 540 506 l 540 308 q 540 303 541 298 q 542 292 544 288 q 545 278 546 268 q 547 258 547 248 q 547 238 546 227 q 546 216 544 206 q 542 202 541 197 q 540 192 540 188 l 540 14 l 533 6 l 358 6 q 354 6 348 5 q 343 4 339 3 q 329 2 319 0 q 308 0 298 0 q 277 0 258 3 q 254 4 248 5 q 243 6 239 6 l 64 6 l 56 14 l 56 190 q 56 194 55 200 q 54 205 53 210 q 50 228 50 248 l 50 252 l 56 258 z m 298 660 q 318 660 335 652 q 352 644 366 632 q 378 618 386 601 q 394 584 394 564 q 394 547 387 531 q 381 516 370 503 q 360 490 344 482 q 330 474 312 471 l 312 342 q 330 338 344 330 q 360 322 370 310 q 381 297 387 282 q 394 266 394 248 q 394 228 386 211 q 378 194 366 181 q 352 168 335 160 q 318 153 298 153 q 280 153 264 160 q 248 166 235 178 q 222 189 214 204 q 206 220 204 238 l 76 238 q 78 193 97 154 q 115 116 145 88 q 175 59 214 42 q 254 26 298 26 q 344 26 384 44 q 424 61 455 91 q 485 121 502 161 q 520 202 520 248 q 520 290 504 328 q 489 366 462 398 l 462 416 q 490 447 505 485 q 520 522 520 565 q 520 610 502 651 q 484 691 454 721 q 424 752 384 769 q 344 787 298 787 q 254 787 214 770 q 175 754 145 725 q 115 696 97 658 q 78 618 76 574 l 204 574 q 206 592 214 608 q 222 624 235 635 q 248 646 264 653 q 280 660 298 660 z m 70 548 l 70 264 l 217 264 l 230 250 q 230 236 236 223 q 240 210 250 200 q 258 190 271 185 q 284 180 298 180 q 312 180 325 185 q 337 190 346 200 q 356 209 362 221 q 367 234 367 248 q 367 262 362 274 q 356 286 346 296 q 337 305 325 310 q 312 316 298 316 l 286 329 l 286 484 l 298 497 q 312 497 325 502 q 338 508 347 517 q 356 526 362 538 q 367 550 367 565 q 367 579 362 592 q 356 604 347 613 q 338 622 325 628 q 312 633 298 633 q 284 633 271 628 q 258 622 250 612 q 240 602 236 590 q 230 576 230 562 l 217 548 z m 200 794 l 70 794 l 70 663 q 88 707 122 741 q 156 774 200 794 z m 526 794 l 396 794 q 440 774 474 741 q 508 708 526 664 z m 70 150 l 70 20 l 200 20 q 156 39 122 72 q 88 105 70 150 z m 398 20 l 526 20 l 526 148 q 508 104 474 72 q 442 38 398 20 z m 526 347 l 526 466 q 520 450 510 435 q 502 420 490 406 q 501 392 510 378 q 519 363 526 347 z"},";":{"x_min":0,"x_max":281,"ha":281,"o":"m 224 237 l 229 228 q 229 228 228 226 q 227 223 226 220 q 225 217 224 214 l 224 212 l 224 14 l 216 6 l 150 6 l 140 0 l 64 0 l 50 14 l 50 233 l 56 240 l 56 346 q 50 362 50 380 q 50 398 56 414 l 56 800 l 64 807 l 216 807 l 224 800 l 224 417 q 227 408 229 399 q 231 390 231 380 q 231 370 229 361 q 227 352 224 344 z m 70 437 q 82 454 101 462 q 120 470 140 470 q 162 470 179 462 q 196 454 210 438 l 210 794 l 70 794 z m 198 220 l 76 220 l 76 26 l 130 26 z m 140 316 q 154 316 165 321 q 176 326 185 335 q 194 344 199 355 q 204 366 204 380 q 204 393 200 405 q 194 416 186 425 q 177 434 165 439 q 154 444 140 444 q 128 444 116 439 q 104 434 95 425 q 86 416 82 405 q 76 393 76 380 q 76 366 82 355 q 86 343 95 334 q 104 326 116 321 q 128 316 140 316 z m 70 246 l 210 246 l 210 322 q 197 306 179 298 q 160 290 140 290 q 120 290 101 298 q 82 306 70 324 z m 210 174 l 156 20 l 210 20 z"},"J":{"x_min":0,"x_max":546,"ha":546,"o":"m 60 807 l 322 807 l 328 814 l 482 814 l 496 800 l 496 248 q 496 228 492 210 q 492 205 490 200 q 489 194 489 190 l 489 14 l 482 6 l 306 6 q 302 6 297 5 q 292 4 288 3 q 278 2 267 0 q 257 0 247 0 q 226 0 206 3 q 202 4 197 5 q 192 6 188 6 l 60 6 l 54 14 l 54 91 l 50 96 l 52 114 l 54 116 l 54 800 z m 67 126 l 174 208 l 193 206 q 202 193 217 186 q 232 180 247 180 q 261 180 274 185 q 286 190 295 199 q 304 208 310 221 q 315 234 315 248 l 315 794 l 67 794 z m 469 788 l 342 788 l 342 248 q 342 228 334 211 q 326 194 314 181 q 300 168 283 160 q 266 153 246 153 q 208 153 180 180 l 79 102 q 110 66 154 46 q 198 26 246 26 q 292 26 332 44 q 373 62 404 92 q 434 122 452 162 q 469 202 469 248 z m 476 150 q 456 106 423 72 q 390 40 346 20 l 476 20 z m 100 46 q 83 60 67 76 l 67 20 l 138 20 q 118 32 100 46 z"},"V":{"x_min":0,"x_max":912,"ha":912,"o":"m 385 26 l 527 26 l 830 787 l 701 787 l 468 203 l 444 203 l 211 787 l 82 787 z m 230 807 l 682 807 l 692 814 l 850 814 l 862 796 l 856 781 l 856 14 l 850 6 l 546 6 l 536 0 l 376 0 l 366 6 l 62 6 l 56 14 l 56 781 l 50 796 l 62 814 l 220 814 z m 359 20 l 69 748 l 69 20 z m 236 794 l 456 244 l 675 794 z m 843 748 l 552 20 l 843 20 z"},"\"":{"x_min":0,"x_max":516,"ha":516,"o":"m 222 807 l 294 807 l 300 814 l 454 814 l 466 796 q 466 796 465 793 q 464 790 463 787 q 462 784 460 782 l 460 779 l 460 14 l 454 6 l 64 6 l 56 14 l 56 574 l 50 580 l 50 800 l 64 814 l 216 814 z m 446 740 l 389 576 l 376 566 l 300 566 l 287 580 l 287 794 l 229 794 l 153 576 l 140 566 l 70 566 l 70 20 l 446 20 z m 198 787 l 77 787 l 77 593 l 131 593 z m 434 787 l 314 787 l 314 593 l 368 593 z"},"7":{"x_min":0,"x_max":615,"ha":615,"o":"m 70 636 l 70 22 l 164 22 l 329 636 z m 357 22 l 546 22 l 546 726 z m 56 642 l 50 648 l 50 802 l 64 816 l 552 816 l 565 799 q 565 798 564 794 q 563 791 562 787 q 560 783 560 780 q 559 776 559 776 l 559 16 l 552 9 l 350 9 l 342 2 l 176 2 l 172 9 l 64 9 l 56 16 z m 76 662 l 346 662 l 360 646 l 194 29 l 331 29 l 535 789 l 76 789 z"},"S":{"x_min":0,"x_max":602,"ha":602,"o":"m 302 813 q 321 813 340 810 q 345 809 350 808 q 356 806 360 806 l 539 806 l 546 800 l 546 622 q 546 618 547 612 l 550 604 q 552 584 552 565 l 546 558 l 546 306 q 546 302 547 296 l 550 288 q 552 268 552 248 q 552 228 550 209 q 548 205 547 200 q 546 196 546 192 l 546 13 l 539 6 l 354 6 q 350 6 346 5 q 342 4 339 4 q 320 0 302 0 q 282 0 263 4 q 260 4 256 5 q 252 6 248 6 l 64 6 l 56 13 l 56 192 q 56 195 55 200 q 54 204 53 208 q 50 228 50 248 l 56 256 l 56 508 q 56 511 55 516 q 54 520 53 524 q 50 544 50 564 q 50 584 53 605 q 54 609 55 614 q 56 618 56 622 l 56 800 l 64 806 l 244 806 q 248 806 252 808 l 262 810 q 282 813 302 813 z m 302 786 q 256 786 215 769 q 174 752 143 722 q 112 692 94 651 q 76 610 76 564 q 76 519 94 479 q 112 439 142 409 q 172 379 213 361 q 253 344 298 343 l 298 344 q 318 344 335 336 q 352 328 366 316 q 378 303 386 286 q 394 268 394 249 q 394 230 386 212 q 378 195 366 182 q 352 169 335 162 q 318 154 298 154 q 281 154 265 160 q 249 166 236 177 q 224 188 215 203 q 206 218 204 236 l 77 236 q 80 191 98 153 q 117 115 148 87 q 178 59 218 43 q 258 28 302 28 q 347 28 388 45 q 429 62 460 92 q 490 122 508 162 q 526 202 526 248 q 526 294 508 335 q 490 376 458 406 q 428 436 386 453 q 346 470 300 470 q 280 470 262 477 q 245 484 232 497 q 218 510 211 528 q 204 545 204 565 q 204 584 211 601 q 218 618 232 632 q 244 644 262 652 q 279 660 298 660 q 316 660 332 653 q 348 647 360 636 q 373 626 381 610 q 390 596 392 578 l 526 578 q 522 622 504 661 q 485 699 455 727 q 424 755 385 771 q 346 786 302 786 z m 532 345 l 532 552 l 380 552 l 367 565 q 367 579 362 592 q 356 604 347 613 q 338 622 325 628 q 312 633 298 633 q 284 633 272 628 q 259 622 250 613 q 240 604 235 592 q 230 579 230 565 q 230 550 235 538 q 240 526 250 516 q 259 507 272 502 q 284 496 298 496 l 299 496 q 300 496 301 496 q 339 496 374 486 q 410 475 440 455 q 470 436 493 408 q 517 380 532 345 z m 70 468 l 70 262 l 216 262 l 230 249 q 230 234 235 222 q 240 210 250 200 q 258 191 271 186 q 284 180 298 180 q 312 180 325 186 q 338 192 347 201 q 356 210 362 222 q 367 235 367 249 q 367 263 362 275 q 356 288 347 297 q 338 306 325 312 q 312 317 299 317 l 298 316 q 261 316 226 327 q 192 338 162 358 q 132 378 108 405 q 84 433 70 468 z m 398 20 l 532 20 l 532 152 q 514 106 478 72 q 443 38 398 20 z m 70 20 l 205 20 q 160 38 124 72 q 89 106 70 152 z m 532 662 l 532 793 l 400 793 q 444 774 479 740 q 514 706 532 662 z m 202 793 l 70 793 l 70 662 q 89 706 124 740 q 158 774 202 793 z"},"}":{"x_min":0,"x_max":368,"ha":368,"o":"m 86 787 q 143 702 173 605 q 202 508 202 406 q 202 356 195 306 q 188 256 173 208 q 158 160 136 114 q 115 68 86 26 l 191 26 q 240 112 266 210 q 292 308 292 406 q 292 506 266 603 q 241 700 191 787 z m 298 794 l 218 794 q 245 744 266 692 q 286 640 298 585 z m 298 20 l 298 228 q 287 174 266 121 q 246 68 218 20 z m 68 46 q 120 126 148 218 q 176 310 176 406 q 176 504 148 595 q 120 686 68 768 z m 312 800 l 312 511 q 312 502 313 493 q 314 484 316 476 q 316 458 317 441 q 318 424 318 406 q 318 389 317 372 q 316 355 316 338 q 314 329 313 320 q 312 311 312 302 l 312 14 l 304 6 l 210 6 l 199 0 l 61 0 l 50 21 l 54 27 l 54 787 l 50 792 l 61 814 l 199 814 l 210 807 l 304 807 z"},"Z":{"x_min":0,"x_max":739,"ha":739,"o":"m 682 785 l 682 179 l 689 172 l 689 14 l 676 0 l 64 0 l 52 20 l 56 28 l 56 634 l 50 641 l 50 800 l 64 814 l 676 814 l 687 794 z m 669 762 l 340 186 l 669 186 z m 70 52 l 399 628 l 70 628 z m 652 787 l 70 787 l 70 654 l 422 654 l 434 634 l 86 26 l 662 26 l 662 159 l 317 159 l 306 179 z"},"x":{"x_min":0,"x_max":733,"ha":733,"o":"m 649 26 l 440 400 l 440 413 l 649 787 l 510 787 l 378 552 l 355 552 l 224 787 l 84 787 l 294 413 l 294 400 l 84 26 l 224 26 l 355 262 l 378 262 l 510 26 z m 242 807 l 491 807 l 502 814 l 672 814 l 683 794 l 678 785 l 678 28 l 683 20 l 672 0 l 502 0 l 491 6 l 242 6 l 231 0 l 62 0 l 50 20 l 55 28 l 55 785 l 50 794 l 62 814 l 231 814 z m 483 794 l 250 794 l 366 586 z m 68 761 l 68 52 l 266 406 z m 250 20 l 483 20 l 366 228 z m 665 52 l 665 761 l 466 406 z"},")":{"x_min":0,"x_max":368,"ha":368,"o":"m 86 787 q 143 702 173 605 q 202 508 202 406 q 202 356 195 306 q 188 256 173 208 q 158 160 136 114 q 115 68 86 26 l 191 26 q 240 112 266 210 q 292 308 292 406 q 292 506 266 603 q 241 700 191 787 z m 298 794 l 218 794 q 245 744 266 692 q 286 640 298 585 z m 298 20 l 298 228 q 287 174 266 121 q 246 68 218 20 z m 68 46 q 120 126 148 218 q 176 310 176 406 q 176 504 148 595 q 120 686 68 768 z m 312 800 l 312 511 q 312 502 313 493 q 314 484 316 476 q 316 458 317 441 q 318 424 318 406 q 318 389 317 372 q 316 355 316 338 q 314 329 313 320 q 312 311 312 302 l 312 14 l 304 6 l 210 6 l 199 0 l 61 0 l 50 21 l 54 27 l 54 787 l 50 792 l 61 814 l 199 814 l 210 807 l 304 807 z"},"&":{"x_min":0,"x_max":678,"ha":678,"o":"m 64 807 l 241 807 q 245 807 250 808 q 254 810 258 810 q 268 812 278 813 q 288 814 298 814 q 318 814 338 810 q 342 810 347 808 q 352 807 356 807 l 616 807 l 622 800 l 622 490 l 628 484 l 628 330 l 622 323 l 622 172 l 628 166 l 628 13 l 616 0 q 606 0 595 0 q 584 1 574 3 q 570 4 565 5 q 560 6 556 6 l 358 6 q 354 6 348 5 q 343 4 339 3 q 329 2 319 0 q 308 0 298 0 q 277 0 258 3 q 254 4 248 5 q 243 6 239 6 l 64 6 l 58 14 l 58 188 q 58 192 56 197 q 54 202 54 206 q 52 216 51 226 q 50 237 50 248 q 50 258 51 268 q 52 279 54 289 q 54 293 56 298 q 58 304 58 308 l 58 506 q 58 510 56 514 q 54 520 54 524 q 52 534 51 544 q 50 554 50 565 q 50 576 51 586 q 52 596 54 606 q 54 610 56 616 q 58 621 58 625 l 58 800 z m 298 660 q 316 660 332 653 q 348 646 361 635 q 374 624 382 608 q 390 592 392 574 l 520 574 q 518 618 500 657 q 482 696 452 725 q 422 754 382 770 q 342 786 298 786 q 253 786 212 769 q 172 752 142 721 q 112 691 94 650 q 76 610 76 564 q 76 522 91 484 q 106 447 134 416 l 134 398 q 106 366 91 328 q 76 290 76 248 q 76 202 94 162 q 112 122 142 92 q 172 62 212 44 q 252 26 298 26 q 340 26 379 41 q 418 56 448 84 l 466 84 q 494 58 529 44 q 564 30 602 27 l 602 154 q 585 156 570 164 q 555 172 544 185 q 533 198 527 214 q 520 229 520 246 l 520 329 l 534 342 l 602 342 l 602 470 l 358 470 l 358 342 l 380 342 l 393 329 q 393 310 393 291 q 394 272 394 254 q 394 233 386 215 q 380 197 367 183 q 354 170 337 161 q 320 153 298 153 q 279 153 262 160 q 245 168 232 181 q 219 194 212 211 q 204 228 204 248 q 204 266 210 281 q 216 297 228 309 q 238 322 253 330 q 268 338 286 341 l 286 470 q 268 473 253 481 q 238 490 228 502 q 216 514 210 530 q 204 546 204 564 q 204 584 212 601 q 219 618 232 632 q 245 644 262 652 q 279 660 298 660 z m 608 794 l 396 800 q 431 782 458 758 q 486 734 506 703 q 525 673 536 638 q 546 602 546 564 l 546 562 l 534 548 l 380 548 l 367 562 q 367 576 362 590 q 357 602 348 612 q 338 622 326 628 q 314 633 298 633 q 284 633 272 628 q 260 622 250 613 q 241 604 236 592 q 230 579 230 565 q 230 550 236 538 q 241 526 250 516 q 260 507 272 502 q 284 496 298 496 l 312 483 l 312 329 l 298 316 q 284 316 272 310 q 260 305 251 296 q 242 286 236 274 q 230 262 230 248 q 230 233 236 221 q 241 208 250 199 q 260 190 272 185 q 284 180 298 180 q 312 180 325 185 q 337 190 346 200 q 356 209 362 221 q 367 234 367 248 l 367 284 q 367 292 367 300 q 366 308 366 316 l 346 316 l 332 330 l 332 483 l 346 496 l 608 496 z m 608 180 l 608 316 l 546 316 l 546 248 q 546 234 551 223 q 556 211 564 202 q 572 193 584 187 q 595 181 608 180 z m 200 794 l 70 794 l 70 664 q 90 708 123 741 q 156 774 200 794 z m 70 148 l 70 20 l 200 20 q 156 39 122 72 q 89 104 70 148 z m 70 466 l 70 347 q 84 379 108 406 q 84 432 70 466 z m 398 20 l 516 20 q 500 27 486 36 q 471 45 457 56 q 430 34 398 20 z"},"_":{"x_min":0,"x_max":608,"ha":608,"o":"m 76 -31 l 76 -112 l 531 -112 l 531 -31 z m 50 -126 l 50 -31 l 63 -4 l 544 -4 l 558 -18 l 558 -126 l 544 -139 l 63 -139 z"},"v":{"x_min":0,"x_max":912,"ha":912,"o":"m 385 26 l 527 26 l 830 787 l 701 787 l 468 203 l 444 203 l 211 787 l 82 787 z m 230 807 l 682 807 l 692 814 l 850 814 l 862 796 l 856 781 l 856 14 l 850 6 l 546 6 l 536 0 l 376 0 l 366 6 l 62 6 l 56 14 l 56 781 l 50 796 l 62 814 l 220 814 z m 359 20 l 69 748 l 69 20 z m 236 794 l 456 244 l 675 794 z m 843 748 l 552 20 l 843 20 z"},"O":{"x_min":0,"x_max":914,"ha":914,"o":"m 64 807 l 383 807 q 388 807 394 808 q 400 810 405 810 q 431 814 457 814 q 482 814 508 810 q 513 810 519 808 q 525 807 530 807 l 850 807 l 858 800 l 858 480 q 858 475 859 468 q 860 462 861 456 q 864 432 864 406 q 864 382 861 358 q 860 352 859 346 q 858 339 858 333 l 858 14 l 850 6 l 530 6 q 524 6 518 5 q 511 4 505 3 q 481 0 457 0 q 432 0 407 3 q 402 4 395 5 q 388 6 383 6 l 64 6 l 56 14 l 56 333 q 56 338 55 345 q 54 351 53 356 q 50 381 50 406 q 50 433 53 458 q 54 464 55 470 q 56 476 56 480 l 56 800 z m 584 794 q 629 778 670 753 q 710 728 744 694 q 778 660 804 619 q 829 578 844 533 l 844 794 z m 844 280 q 829 234 804 194 q 778 153 744 119 q 711 86 670 60 q 629 35 584 20 l 844 20 z m 330 20 q 284 35 244 60 q 203 86 169 119 q 136 152 110 193 q 85 234 70 280 l 70 20 z m 70 533 q 84 578 110 619 q 136 660 170 694 q 204 728 244 753 q 285 778 330 794 l 70 794 z m 457 787 q 404 787 356 774 q 308 760 265 735 q 222 710 188 676 q 154 641 128 598 q 104 556 90 508 q 76 459 76 406 q 76 354 90 305 q 104 256 128 214 q 153 172 188 138 q 222 103 265 78 q 307 54 356 40 q 404 26 457 26 q 510 26 558 40 q 606 54 649 78 q 692 103 726 138 q 760 172 786 215 q 810 257 824 306 q 838 354 838 406 q 838 458 824 507 q 810 556 785 598 q 760 640 726 675 q 691 710 649 735 q 606 760 558 773 q 509 787 457 787 z m 457 660 q 509 660 555 640 q 602 620 636 585 q 670 550 691 504 q 711 458 711 406 q 711 354 691 308 q 670 262 636 228 q 602 193 555 173 q 509 152 457 152 q 405 152 359 172 q 312 192 278 227 q 243 262 223 308 q 202 354 202 406 q 202 458 223 505 q 243 551 278 586 q 312 620 358 640 q 404 660 457 660 z m 457 634 q 410 634 368 616 q 327 598 296 567 q 265 536 247 494 q 229 453 229 406 q 229 360 247 318 q 265 277 296 246 q 327 215 368 197 q 410 179 457 179 q 504 179 545 197 q 586 215 618 246 q 648 277 666 318 q 684 360 684 406 q 684 454 667 496 q 649 537 618 568 q 588 598 546 616 q 504 634 457 634 z"},"(":{"x_min":0,"x_max":368,"ha":368,"o":"m 64 807 l 158 807 l 169 814 l 307 814 l 318 792 l 314 787 l 314 27 l 318 21 l 307 0 l 169 0 l 158 6 l 64 6 l 56 14 l 56 302 q 56 311 55 320 q 54 329 52 338 q 52 355 51 372 q 50 389 50 406 q 50 424 51 441 q 52 458 52 476 q 54 484 55 493 q 56 502 56 511 l 56 800 z m 300 768 q 248 686 220 595 q 192 504 192 406 q 192 310 220 218 q 248 126 300 46 z m 150 20 q 122 68 102 121 q 81 174 70 228 l 70 20 z m 70 585 q 81 640 102 692 q 123 744 150 794 l 70 794 z m 282 787 l 177 787 q 127 700 102 603 q 76 506 76 406 q 76 358 83 308 q 89 258 102 210 q 114 162 133 115 q 152 69 177 26 l 282 26 q 224 110 195 208 q 166 306 166 406 q 166 508 195 605 q 225 702 282 787 z"},"C":{"x_min":0,"x_max":798,"ha":798,"o":"m 64 807 l 383 807 q 388 807 394 808 q 400 810 405 810 q 431 814 457 814 q 482 814 508 810 q 513 810 519 808 q 525 807 530 807 l 736 807 l 742 800 l 742 697 l 748 691 l 748 672 l 742 666 l 742 140 l 744 138 l 744 119 l 742 116 l 742 14 l 736 6 l 530 6 q 524 6 518 5 q 511 4 505 3 q 481 0 457 0 q 432 0 407 3 q 402 4 395 5 q 388 6 383 6 l 64 6 l 56 14 l 56 333 q 56 338 55 345 q 54 351 53 356 q 50 381 50 406 q 50 433 53 458 q 54 464 55 470 q 56 476 56 480 l 56 800 z m 583 794 q 624 780 660 759 q 696 738 728 710 l 728 794 z m 728 652 l 638 566 l 620 566 q 586 598 545 616 q 504 634 456 634 q 410 634 368 616 q 327 598 296 567 q 265 536 247 494 q 229 453 229 406 q 229 360 247 318 q 265 277 296 246 q 327 215 368 197 q 410 179 456 179 q 502 179 544 196 q 585 213 618 246 l 636 246 l 728 154 z m 728 104 q 697 75 660 54 q 624 34 584 20 l 728 20 z m 330 20 q 284 35 244 60 q 203 86 169 119 q 136 152 110 193 q 85 234 70 280 l 70 20 z m 70 533 q 84 578 110 619 q 136 660 170 694 q 204 728 244 753 q 285 778 330 794 l 70 794 z m 457 787 q 404 787 356 774 q 308 760 265 735 q 222 710 188 676 q 154 641 128 598 q 104 556 90 508 q 76 459 76 406 q 76 354 90 305 q 104 256 128 214 q 153 172 188 138 q 222 103 265 78 q 307 54 356 40 q 404 26 457 26 q 607 26 716 128 l 627 218 q 592 186 548 169 q 504 152 457 152 q 405 152 359 172 q 312 192 278 227 q 243 262 223 308 q 202 354 202 406 q 202 458 223 505 q 243 551 278 586 q 312 620 358 640 q 404 660 457 660 q 506 660 550 643 q 594 626 630 593 l 720 681 q 665 733 598 760 q 532 787 457 787 z"},"W":{"x_min":0,"x_max":1162,"ha":1162,"o":"m 234 807 l 491 807 l 500 814 l 662 814 l 671 807 l 928 807 l 937 814 l 1100 814 l 1112 796 q 1112 795 1110 788 q 1108 780 1105 772 q 1103 764 1101 757 l 1100 750 l 1100 14 l 1092 6 l 890 6 l 880 0 l 718 0 l 710 6 l 452 6 l 444 0 l 282 0 l 272 6 l 63 6 l 56 14 l 56 774 l 55 778 q 54 781 53 785 q 52 789 51 792 q 50 796 50 796 l 63 814 l 225 814 z m 1082 787 l 948 787 l 812 302 l 787 302 l 652 787 l 510 787 l 376 302 l 350 302 l 215 787 l 80 787 l 292 26 l 434 26 l 568 512 l 594 512 l 728 26 l 870 26 z m 266 20 l 70 726 l 70 20 z m 1086 702 l 896 20 l 1086 20 z m 240 794 l 362 354 l 484 794 z m 678 794 l 800 354 l 922 794 z m 703 20 l 581 458 l 459 20 z"},"A":{"x_min":0,"x_max":912,"ha":912,"o":"m 62 807 l 366 807 l 376 814 l 536 814 l 546 807 l 850 807 l 856 800 l 856 32 l 862 18 l 850 0 l 692 0 l 682 6 l 230 6 l 220 0 l 62 0 l 50 18 l 56 32 l 56 800 z m 552 794 l 843 66 l 843 794 z m 675 20 l 618 164 l 294 164 l 236 20 z m 69 66 l 359 794 l 69 794 z m 527 787 l 385 787 l 82 26 l 211 26 l 272 182 l 285 190 l 627 190 l 639 182 l 701 26 l 830 26 z m 456 570 l 354 314 l 558 314 z m 468 610 l 590 306 l 577 288 l 335 288 l 322 306 l 444 610 z"},"f":{"x_min":0,"x_max":616,"ha":616,"o":"m 76 789 l 76 28 l 198 28 l 198 332 l 212 345 l 400 345 l 400 472 l 212 472 l 198 486 l 198 648 l 212 662 l 539 662 l 539 789 z m 559 642 l 559 16 l 552 9 l 218 9 l 212 2 l 64 2 l 50 16 l 50 802 l 64 816 l 552 816 l 566 802 l 566 648 z m 546 636 l 224 636 l 224 499 l 413 499 l 426 486 l 426 332 l 413 318 l 224 318 l 224 22 l 546 22 z"},"Q":{"x_min":0,"x_max":914,"ha":914,"o":"m 64 807 l 383 807 q 388 807 394 808 q 400 810 405 810 q 431 814 457 814 q 482 814 508 810 q 513 810 519 808 q 525 807 530 807 l 850 807 l 858 800 l 858 480 q 858 475 859 468 q 860 462 861 456 q 864 432 864 406 q 864 382 861 358 q 860 352 859 346 q 858 339 858 333 l 858 120 l 860 117 l 860 98 l 858 96 l 858 14 l 850 6 l 768 6 l 766 4 l 746 4 l 744 6 l 530 6 q 524 6 518 5 q 511 4 505 3 q 481 0 457 0 q 432 0 407 3 q 402 4 395 5 q 388 6 383 6 l 64 6 l 56 14 l 56 333 q 56 338 55 345 q 54 351 53 356 q 50 381 50 406 q 50 433 53 458 q 54 464 55 470 q 56 476 56 480 l 56 800 z m 584 794 q 629 778 670 753 q 710 728 744 694 q 778 660 804 619 q 829 578 844 533 l 844 794 z m 844 280 q 836 254 824 229 q 812 204 796 182 l 844 133 z m 844 82 l 782 20 l 844 20 z m 730 20 l 682 68 q 658 53 634 41 q 610 28 584 20 z m 330 20 q 284 35 244 60 q 203 86 169 119 q 136 152 110 193 q 85 234 70 280 l 70 20 z m 70 533 q 84 578 110 619 q 136 660 170 694 q 204 728 244 753 q 285 778 330 794 l 70 794 z m 457 787 q 404 787 356 774 q 308 760 265 735 q 222 710 188 676 q 154 641 128 598 q 104 556 90 508 q 76 459 76 406 q 76 354 90 305 q 104 256 128 214 q 153 172 188 138 q 222 103 265 78 q 307 54 356 40 q 404 26 457 26 q 516 26 572 44 q 628 62 676 96 l 694 94 l 756 32 l 832 108 l 769 170 l 768 188 q 802 236 820 292 q 838 348 838 406 q 838 458 824 507 q 810 556 785 598 q 760 640 726 675 q 691 710 649 735 q 606 760 558 773 q 509 787 457 787 z m 552 425 l 664 313 q 674 334 679 359 q 684 384 684 406 q 684 453 666 494 q 648 536 618 567 q 586 598 545 616 q 504 634 457 634 q 410 634 368 616 q 327 598 296 567 q 265 536 247 494 q 229 453 229 406 q 229 360 247 318 q 265 277 296 246 q 327 215 368 197 q 410 179 457 179 q 481 179 504 184 q 528 189 550 199 l 438 312 l 438 330 l 534 425 z m 658 281 l 542 397 l 467 321 l 582 205 l 580 184 q 552 168 520 160 q 489 152 457 152 q 405 152 359 172 q 312 192 278 227 q 243 262 223 308 q 202 354 202 406 q 202 458 223 505 q 243 551 278 586 q 312 620 358 640 q 404 660 457 660 q 509 660 555 640 q 602 620 636 585 q 670 550 691 504 q 711 458 711 406 q 711 342 680 284 z"},"w":{"x_min":0,"x_max":1162,"ha":1162,"o":"m 234 807 l 491 807 l 500 814 l 662 814 l 671 807 l 928 807 l 937 814 l 1100 814 l 1112 796 q 1112 795 1110 788 q 1108 780 1105 772 q 1103 764 1101 757 l 1100 750 l 1100 14 l 1092 6 l 890 6 l 880 0 l 718 0 l 710 6 l 452 6 l 444 0 l 282 0 l 272 6 l 63 6 l 56 14 l 56 774 l 55 778 q 54 781 53 785 q 52 789 51 792 q 50 796 50 796 l 63 814 l 225 814 z m 1082 787 l 948 787 l 812 302 l 787 302 l 652 787 l 510 787 l 376 302 l 350 302 l 215 787 l 80 787 l 292 26 l 434 26 l 568 512 l 594 512 l 728 26 l 870 26 z m 266 20 l 70 726 l 70 20 z m 1086 702 l 896 20 l 1086 20 z m 240 794 l 362 354 l 484 794 z m 678 794 l 800 354 l 922 794 z m 703 20 l 581 458 l 459 20 z"},"-":{"x_min":0,"x_max":370,"ha":370,"o":"m 294 420 l 76 420 l 76 343 l 294 343 z m 300 794 l 70 794 l 70 447 l 300 447 z m 70 20 l 300 20 l 300 316 l 70 316 z m 56 14 l 56 324 l 50 330 l 50 434 l 56 440 l 56 800 l 64 807 l 307 807 l 314 800 l 314 440 l 320 434 l 320 330 l 314 324 l 314 14 l 307 6 l 64 6 z"},"E":{"x_min":0,"x_max":616,"ha":616,"o":"m 76 787 l 76 26 l 539 26 l 539 154 l 212 154 l 198 166 l 198 330 l 212 343 l 422 343 l 422 470 l 212 470 l 198 484 l 198 646 l 212 660 l 539 660 l 539 787 z m 559 640 l 559 174 l 566 166 l 566 14 l 552 0 l 64 0 l 50 14 l 50 800 l 64 814 l 552 814 l 566 800 l 566 646 z m 546 633 l 224 633 l 224 496 l 434 496 l 448 483 l 448 330 l 434 316 l 224 316 l 224 180 l 546 180 z"},"s":{"x_min":0,"x_max":602,"ha":602,"o":"m 302 813 q 321 813 340 810 q 345 809 350 808 q 356 806 360 806 l 539 806 l 546 800 l 546 622 q 546 618 547 612 l 550 604 q 552 584 552 565 l 546 558 l 546 306 q 546 302 547 296 l 550 288 q 552 268 552 248 q 552 228 550 209 q 548 205 547 200 q 546 196 546 192 l 546 13 l 539 6 l 354 6 q 350 6 346 5 q 342 4 339 4 q 320 0 302 0 q 282 0 263 4 q 260 4 256 5 q 252 6 248 6 l 64 6 l 56 13 l 56 192 q 56 195 55 200 q 54 204 53 208 q 50 228 50 248 l 56 256 l 56 508 q 56 511 55 516 q 54 520 53 524 q 50 544 50 564 q 50 584 53 605 q 54 609 55 614 q 56 618 56 622 l 56 800 l 64 806 l 244 806 q 248 806 252 808 l 262 810 q 282 813 302 813 z m 302 786 q 256 786 215 769 q 174 752 143 722 q 112 692 94 651 q 76 610 76 564 q 76 519 94 479 q 112 439 142 409 q 172 379 213 361 q 253 344 298 343 l 298 344 q 318 344 335 336 q 352 328 366 316 q 378 303 386 286 q 394 268 394 249 q 394 230 386 212 q 378 195 366 182 q 352 169 335 162 q 318 154 298 154 q 281 154 265 160 q 249 166 236 177 q 224 188 215 203 q 206 218 204 236 l 77 236 q 80 191 98 153 q 117 115 148 87 q 178 59 218 43 q 258 28 302 28 q 347 28 388 45 q 429 62 460 92 q 490 122 508 162 q 526 202 526 248 q 526 294 508 335 q 490 376 458 406 q 428 436 386 453 q 346 470 300 470 q 280 470 262 477 q 245 484 232 497 q 218 510 211 528 q 204 545 204 565 q 204 584 211 601 q 218 618 232 632 q 244 644 262 652 q 279 660 298 660 q 316 660 332 653 q 348 647 360 636 q 373 626 381 610 q 390 596 392 578 l 526 578 q 522 622 504 661 q 485 699 455 727 q 424 755 385 771 q 346 786 302 786 z m 532 345 l 532 552 l 380 552 l 367 565 q 367 579 362 592 q 356 604 347 613 q 338 622 325 628 q 312 633 298 633 q 284 633 272 628 q 259 622 250 613 q 240 604 235 592 q 230 579 230 565 q 230 550 235 538 q 240 526 250 516 q 259 507 272 502 q 284 496 298 496 l 299 496 q 300 496 301 496 q 339 496 374 486 q 410 475 440 455 q 470 436 493 408 q 517 380 532 345 z m 70 468 l 70 262 l 216 262 l 230 249 q 230 234 235 222 q 240 210 250 200 q 258 191 271 186 q 284 180 298 180 q 312 180 325 186 q 338 192 347 201 q 356 210 362 222 q 367 235 367 249 q 367 263 362 275 q 356 288 347 297 q 338 306 325 312 q 312 317 299 317 l 298 316 q 261 316 226 327 q 192 338 162 358 q 132 378 108 405 q 84 433 70 468 z m 398 20 l 532 20 l 532 152 q 514 106 478 72 q 443 38 398 20 z m 70 20 l 205 20 q 160 38 124 72 q 89 106 70 152 z m 532 662 l 532 793 l 400 793 q 444 774 479 740 q 514 706 532 662 z m 202 793 l 70 793 l 70 662 q 89 706 124 740 q 158 774 202 793 z"},">":{"x_min":0,"x_max":482,"ha":482,"o":"m 76 436 l 76 308 l 229 247 l 229 222 l 76 162 l 76 33 l 406 164 l 406 306 z m 412 20 l 412 138 l 116 20 z m 70 188 l 188 234 l 70 282 z m 412 794 l 70 794 l 70 468 l 412 332 z m 432 155 l 426 145 l 426 14 l 419 6 l 82 6 l 68 1 l 50 14 l 50 170 l 56 180 l 56 289 l 50 299 l 50 456 l 56 461 l 56 800 l 63 807 l 419 807 l 426 800 l 426 324 l 432 314 z"},"l":{"x_min":0,"x_max":616,"ha":616,"o":"m 546 182 l 546 796 l 224 796 l 224 182 z m 50 16 l 50 802 l 64 816 l 212 816 l 218 809 l 552 809 l 559 802 l 559 176 l 566 169 l 566 16 l 552 2 l 64 2 z m 76 789 l 76 28 l 539 28 l 539 156 l 212 156 l 198 169 l 198 789 z"},"8":{"x_min":0,"x_max":597,"ha":597,"o":"m 298 633 q 284 633 272 628 q 259 622 250 613 q 240 604 235 592 q 230 579 230 565 q 230 550 235 538 q 240 526 250 516 q 259 507 272 502 q 284 496 298 496 q 312 496 325 502 q 338 507 347 516 q 356 526 362 538 q 367 550 367 565 q 367 579 362 592 q 356 604 347 613 q 338 622 325 628 q 312 633 298 633 z m 527 796 l 391 796 q 437 778 472 743 q 508 708 527 663 z m 206 796 l 70 796 l 70 663 q 89 708 125 743 q 160 777 206 796 z m 70 467 l 70 346 q 77 362 86 377 q 96 392 108 406 q 96 420 86 435 q 77 450 70 467 z m 70 150 l 70 22 l 194 22 q 152 42 120 74 q 88 106 70 150 z m 402 22 l 527 22 l 527 150 q 509 107 477 74 q 444 41 402 22 z m 527 346 l 527 468 q 520 451 511 436 q 502 420 490 406 q 513 378 527 346 z m 64 809 l 252 809 q 255 809 259 810 q 263 811 266 812 q 274 812 282 813 q 290 814 298 814 q 307 814 315 813 q 323 812 332 812 q 335 811 339 810 q 342 809 346 809 l 534 809 l 540 802 l 540 622 q 540 618 542 614 q 544 608 544 604 q 547 585 547 565 q 547 555 546 545 q 546 535 544 525 q 544 521 542 516 q 540 512 540 508 l 540 305 q 540 301 542 296 q 544 291 544 287 q 547 268 547 248 q 547 238 546 228 q 546 218 544 208 q 544 204 542 199 q 540 194 540 190 l 540 16 l 534 9 l 366 9 q 362 9 356 7 q 350 5 345 4 q 322 0 298 0 q 274 0 252 4 q 247 5 241 7 q 234 9 230 9 l 64 9 l 56 16 l 56 190 q 56 194 55 199 q 54 204 53 208 q 50 228 50 248 q 50 268 53 287 q 54 291 55 296 q 56 302 56 306 l 56 508 q 56 512 55 517 q 54 522 53 526 q 50 545 50 565 q 50 585 53 604 q 54 608 55 614 q 56 619 56 623 l 56 802 z m 298 660 q 318 660 335 652 q 352 644 366 632 q 378 618 386 601 q 394 584 394 565 q 394 546 386 528 q 378 511 366 498 q 352 485 335 478 q 318 470 298 470 q 279 470 262 478 q 244 485 232 498 q 218 511 211 528 q 204 546 204 565 q 204 584 211 602 q 218 619 231 632 q 244 644 262 652 q 279 660 298 660 z m 134 398 q 106 366 91 328 q 76 290 76 248 q 76 202 94 161 q 112 121 142 91 q 172 61 212 44 q 252 26 298 26 q 344 26 384 44 q 425 61 455 91 q 486 121 503 161 q 520 202 520 248 q 520 290 505 328 q 490 366 462 398 l 462 416 q 490 447 506 485 q 520 522 520 565 q 520 610 503 651 q 485 691 455 721 q 424 752 384 769 q 344 787 298 787 q 253 787 212 770 q 172 752 142 722 q 112 692 94 651 q 76 610 76 565 q 76 522 91 485 q 106 447 134 416 z m 298 316 q 284 316 272 310 q 260 305 250 296 q 241 286 236 274 q 230 262 230 248 q 230 233 235 221 q 240 208 250 199 q 259 190 271 185 q 284 180 298 180 q 312 180 325 185 q 337 190 346 200 q 356 209 362 221 q 367 234 367 248 q 367 262 362 274 q 356 286 346 296 q 337 305 325 310 q 312 316 298 316 z m 298 342 q 318 342 335 335 q 352 328 366 314 q 378 302 386 284 q 394 267 394 248 q 394 228 386 211 q 378 194 366 181 q 352 168 335 160 q 318 153 298 153 q 279 153 262 160 q 244 168 232 181 q 218 194 211 211 q 204 228 204 248 q 204 267 211 284 q 218 302 231 315 q 244 328 262 335 q 279 342 298 342 z"},"\\":{"x_min":0,"x_max":558,"ha":558,"o":"m 202 807 l 496 807 l 502 800 l 502 33 l 508 18 l 496 0 l 366 0 l 356 6 l 66 6 l 60 14 l 60 770 l 50 796 l 62 814 l 192 814 z m 73 736 l 73 20 l 349 20 z m 489 67 l 489 794 l 208 794 z m 375 26 l 476 26 l 182 787 l 82 787 z"},"e":{"x_min":0,"x_max":616,"ha":616,"o":"m 76 787 l 76 26 l 539 26 l 539 154 l 212 154 l 198 166 l 198 330 l 212 343 l 422 343 l 422 470 l 212 470 l 198 484 l 198 646 l 212 660 l 539 660 l 539 787 z m 559 640 l 559 174 l 566 166 l 566 14 l 552 0 l 64 0 l 50 14 l 50 800 l 64 814 l 552 814 l 566 800 l 566 646 z m 546 633 l 224 633 l 224 496 l 434 496 l 448 483 l 448 330 l 434 316 l 224 316 l 224 180 l 546 180 z"},"b":{"x_min":0,"x_max":616,"ha":616,"o":"m 317 496 q 331 496 344 502 q 356 507 365 516 q 374 526 380 538 q 385 550 385 565 q 385 579 380 592 q 374 604 365 613 q 356 622 344 628 q 331 633 317 633 l 224 633 l 224 496 z m 552 807 l 559 800 l 559 622 q 559 618 560 614 q 562 608 562 604 q 566 585 566 565 q 566 555 565 545 q 564 535 562 525 q 562 521 560 516 q 559 512 559 508 l 559 305 q 559 301 560 296 q 562 291 562 287 q 566 268 566 248 q 566 238 565 228 q 564 218 562 208 q 562 204 560 199 q 559 194 559 190 l 559 14 l 552 6 l 377 6 q 373 6 368 5 q 364 4 360 3 q 349 2 338 0 q 328 0 317 0 l 308 0 q 247 0 186 0 q 125 0 64 0 l 50 14 l 50 800 l 64 814 l 317 814 q 337 814 356 810 q 360 810 366 808 q 370 807 374 807 z m 316 470 l 212 470 l 198 484 l 198 646 l 212 660 l 316 660 q 336 660 353 652 q 370 644 384 632 q 396 618 404 601 q 412 584 412 565 q 412 546 404 528 q 396 510 384 498 q 371 485 354 478 q 336 470 316 470 z m 317 26 q 362 26 403 44 q 444 61 474 91 q 504 121 522 161 q 539 202 539 248 q 539 290 524 328 q 508 366 481 398 l 481 416 q 509 447 524 485 q 539 522 539 565 q 539 610 521 651 q 504 691 473 721 q 443 752 403 769 q 362 787 317 787 l 76 787 l 76 26 q 137 26 197 26 q 256 26 317 26 z m 415 794 q 459 774 493 741 q 526 707 546 663 l 546 794 z m 546 468 q 532 434 508 406 q 520 392 529 377 q 538 362 546 346 z m 546 150 q 526 105 494 72 q 460 39 416 20 l 546 20 z m 317 316 l 224 316 l 224 180 q 248 180 271 180 q 294 180 318 180 q 332 180 344 185 q 356 190 365 200 q 374 209 380 222 q 385 234 385 248 q 385 262 380 274 q 374 286 365 296 q 356 305 344 310 q 331 316 317 316 z m 317 342 q 336 342 354 335 q 370 328 384 314 q 396 302 404 284 q 412 267 412 248 q 412 228 404 211 q 396 194 384 180 q 370 168 353 160 q 336 152 316 152 l 316 154 l 212 154 l 198 166 l 198 330 l 212 343 l 316 343 z"},"%":{"x_min":0,"x_max":822,"ha":822,"o":"m 758 240 q 771 210 771 176 q 771 142 758 113 l 758 14 l 752 6 l 638 6 q 634 6 629 5 q 624 4 620 2 q 602 0 584 0 q 566 0 548 2 q 544 4 540 5 q 534 6 530 6 l 224 6 l 214 0 l 64 0 l 52 21 l 56 27 l 56 588 q 56 592 55 596 q 54 600 53 603 q 50 618 50 636 q 50 652 53 670 q 54 672 55 676 q 56 680 56 683 l 56 800 l 64 807 l 186 807 q 189 807 194 808 l 203 811 q 212 812 220 813 q 228 814 236 814 q 245 814 254 813 q 262 812 270 811 l 279 808 q 284 807 288 807 l 600 807 l 600 808 l 612 814 l 762 814 l 772 792 l 758 772 z m 322 794 q 369 770 396 729 q 423 688 423 636 q 423 598 408 565 q 392 532 366 509 q 340 485 307 472 q 273 458 236 458 q 210 458 186 464 q 160 470 139 483 q 117 496 99 514 q 82 532 70 556 l 70 46 l 590 794 z m 736 787 l 618 787 l 89 26 l 206 26 z m 584 354 q 635 354 676 332 q 718 310 746 266 l 746 754 l 234 20 l 496 20 q 450 44 424 84 q 398 124 398 176 q 398 214 413 247 q 428 280 454 304 q 480 328 513 341 q 547 354 584 354 z m 584 328 q 552 328 523 316 q 494 305 472 285 q 450 264 437 237 q 424 209 424 176 q 424 144 437 116 q 450 89 472 69 q 494 48 523 37 q 552 26 584 26 q 616 26 644 37 q 674 48 696 68 q 718 88 731 116 q 744 144 744 176 q 744 210 731 237 q 718 265 696 285 q 674 306 645 317 q 616 328 584 328 z m 236 787 q 205 787 176 776 q 147 764 125 744 q 103 724 90 696 q 76 668 76 636 q 76 603 90 576 q 103 548 125 528 q 148 508 176 496 q 205 484 236 484 q 268 484 297 496 q 326 508 348 528 q 370 548 383 576 q 396 603 396 636 q 396 668 384 696 q 370 724 348 744 q 326 764 298 776 q 268 787 236 787 z m 236 705 q 250 705 264 700 q 277 694 287 684 q 298 675 304 662 q 310 650 310 636 q 310 621 304 608 q 298 596 287 586 q 277 576 264 571 q 250 566 236 566 q 222 566 209 571 q 196 576 186 586 q 176 595 170 608 q 164 620 164 636 q 164 650 170 662 q 176 675 186 684 q 196 694 209 700 q 222 705 236 705 z m 584 246 q 570 246 556 241 q 544 236 534 226 q 524 216 518 204 q 512 191 512 176 q 512 162 518 149 q 524 136 534 127 q 544 118 556 112 q 570 107 584 107 q 598 107 611 112 q 624 118 635 127 q 645 136 651 149 q 657 162 657 176 q 657 191 651 204 q 645 216 635 226 q 624 236 611 241 q 598 246 584 246 z m 630 176 q 630 167 626 159 q 622 152 616 146 q 610 140 602 137 q 593 134 584 134 q 575 134 567 137 q 558 140 552 146 q 546 152 542 160 q 538 168 538 176 q 538 186 542 194 q 546 202 552 207 q 558 213 567 216 q 575 220 584 220 q 593 220 602 216 q 610 213 616 208 q 623 202 627 194 q 630 186 630 176 z m 236 678 q 228 678 219 675 q 211 672 205 666 q 198 660 194 652 q 190 644 190 636 q 190 626 194 618 q 198 610 204 605 q 211 599 219 596 q 228 592 236 592 q 245 592 254 596 q 262 599 268 605 q 275 611 279 619 q 283 626 283 636 q 283 645 279 653 q 276 661 269 666 q 262 672 254 675 q 246 678 236 678 z m 70 716 q 84 742 104 761 q 124 780 150 794 l 70 794 z m 746 86 q 730 64 713 48 q 696 33 672 20 l 746 20 z"},"m":{"x_min":0,"x_max":914,"ha":914,"o":"m 386 26 l 528 26 l 704 471 l 704 26 l 838 26 l 838 787 l 702 787 l 470 203 l 444 203 l 212 787 l 76 787 l 76 26 l 210 26 l 210 471 z m 230 807 l 684 807 l 692 814 l 850 814 l 864 800 l 864 14 l 850 0 l 692 0 l 684 6 l 546 6 l 536 0 l 377 0 l 368 6 l 230 6 l 222 0 l 64 0 l 50 14 l 50 800 l 64 814 l 222 814 z m 360 20 l 237 331 l 237 20 z m 238 794 l 457 244 l 676 794 z m 678 20 l 678 331 l 554 20 z"},"#":{"x_min":0,"x_max":596,"ha":596,"o":"m 76 496 l 177 496 l 190 479 l 168 403 l 154 394 l 76 394 l 76 343 l 132 343 l 145 326 l 115 224 l 171 224 l 203 334 l 216 343 l 300 343 l 312 326 l 282 224 l 338 224 l 371 334 l 384 343 l 520 343 l 520 394 l 406 394 l 394 410 l 416 486 l 428 496 l 520 496 l 520 547 l 451 547 l 438 564 l 468 666 l 412 666 l 380 556 l 367 547 l 284 547 l 270 564 l 300 666 l 244 666 l 212 556 l 200 547 l 76 547 z m 64 807 l 533 807 l 540 800 l 540 567 l 546 560 l 546 484 l 540 477 l 540 414 l 546 406 l 546 330 l 540 323 l 540 14 l 533 6 l 64 6 l 56 14 l 56 323 l 50 330 l 50 406 l 56 414 l 56 477 l 50 484 l 50 560 l 56 567 l 56 800 z m 159 470 l 70 470 l 70 420 l 144 420 z m 70 574 l 190 574 l 222 684 l 234 693 l 318 693 l 331 676 l 301 574 l 358 574 l 390 684 l 402 693 l 486 693 l 498 676 l 468 574 l 526 574 l 526 794 l 70 794 z m 526 470 l 438 470 l 424 420 l 526 420 z m 526 316 l 394 316 l 362 206 l 348 197 l 265 197 l 252 214 l 282 316 l 226 316 l 194 206 l 181 197 l 97 197 l 84 214 l 114 316 l 70 316 l 70 20 l 526 20 z m 322 394 l 238 394 l 226 410 l 248 486 l 261 496 l 344 496 l 358 479 l 335 403 z m 256 420 l 312 420 l 327 470 l 271 470 z"},",":{"x_min":0,"x_max":279,"ha":279,"o":"m 64 807 l 216 807 l 224 800 l 224 237 l 229 228 q 229 228 228 226 q 227 223 226 220 q 225 217 224 214 l 224 212 l 224 14 l 216 6 l 150 6 l 140 0 l 64 0 l 50 14 l 50 233 l 56 240 l 56 800 z m 70 246 l 210 246 l 210 793 l 70 793 z m 198 220 l 76 220 l 76 26 l 130 26 z m 210 174 l 156 20 l 210 20 z"},"n":{"x_min":0,"x_max":826,"ha":826,"o":"m 234 807 l 596 807 l 604 814 l 763 814 l 776 800 l 776 14 l 763 0 l 604 0 l 592 6 l 230 6 l 222 0 l 64 0 l 50 14 l 50 800 l 64 814 l 222 814 l 234 808 z m 582 20 l 234 509 l 234 20 z m 244 794 l 590 303 l 590 794 z m 750 787 l 616 787 l 616 261 l 592 254 l 216 787 l 76 787 l 76 26 l 210 26 l 210 551 l 234 558 l 610 26 l 750 26 z"},"h":{"x_min":0,"x_max":755,"ha":755,"o":"m 678 787 l 557 787 l 557 484 l 544 470 l 212 470 l 198 484 l 198 787 l 76 787 l 76 26 l 198 26 l 198 330 l 212 343 l 544 343 l 557 330 l 557 26 l 678 26 z m 218 807 l 537 807 l 544 814 l 692 814 l 705 800 l 705 14 l 692 0 l 544 0 l 537 6 l 218 6 l 212 0 l 64 0 l 50 14 l 50 800 l 64 814 l 212 814 z m 530 20 l 530 316 l 224 316 l 224 20 z m 224 793 l 224 496 l 530 496 l 530 793 z"},"z":{"x_min":0,"x_max":739,"ha":739,"o":"m 682 785 l 682 179 l 689 172 l 689 14 l 676 0 l 64 0 l 52 20 l 56 28 l 56 634 l 50 641 l 50 800 l 64 814 l 676 814 l 687 794 z m 669 762 l 340 186 l 669 186 z m 70 52 l 399 628 l 70 628 z m 652 787 l 70 787 l 70 654 l 422 654 l 434 634 l 86 26 l 662 26 l 662 159 l 317 159 l 306 179 z"},"B":{"x_min":0,"x_max":616,"ha":616,"o":"m 317 496 q 331 496 344 502 q 356 507 365 516 q 374 526 380 538 q 385 550 385 565 q 385 579 380 592 q 374 604 365 613 q 356 622 344 628 q 331 633 317 633 l 224 633 l 224 496 z m 552 807 l 559 800 l 559 622 q 559 618 560 614 q 562 608 562 604 q 566 585 566 565 q 566 555 565 545 q 564 535 562 525 q 562 521 560 516 q 559 512 559 508 l 559 305 q 559 301 560 296 q 562 291 562 287 q 566 268 566 248 q 566 238 565 228 q 564 218 562 208 q 562 204 560 199 q 559 194 559 190 l 559 14 l 552 6 l 377 6 q 373 6 368 5 q 364 4 360 3 q 349 2 338 0 q 328 0 317 0 l 308 0 q 247 0 186 0 q 125 0 64 0 l 50 14 l 50 800 l 64 814 l 317 814 q 337 814 356 810 q 360 810 366 808 q 370 807 374 807 z m 316 470 l 212 470 l 198 484 l 198 646 l 212 660 l 316 660 q 336 660 353 652 q 370 644 384 632 q 396 618 404 601 q 412 584 412 565 q 412 546 404 528 q 396 510 384 498 q 371 485 354 478 q 336 470 316 470 z m 317 26 q 362 26 403 44 q 444 61 474 91 q 504 121 522 161 q 539 202 539 248 q 539 290 524 328 q 508 366 481 398 l 481 416 q 509 447 524 485 q 539 522 539 565 q 539 610 521 651 q 504 691 473 721 q 443 752 403 769 q 362 787 317 787 l 76 787 l 76 26 q 137 26 197 26 q 256 26 317 26 z m 415 794 q 459 774 493 741 q 526 707 546 663 l 546 794 z m 546 468 q 532 434 508 406 q 520 392 529 377 q 538 362 546 346 z m 546 150 q 526 105 494 72 q 460 39 416 20 l 546 20 z m 317 316 l 224 316 l 224 180 q 248 180 271 180 q 294 180 318 180 q 332 180 344 185 q 356 190 365 200 q 374 209 380 222 q 385 234 385 248 q 385 262 380 274 q 374 286 365 296 q 356 305 344 310 q 331 316 317 316 z m 317 342 q 336 342 354 335 q 370 328 384 314 q 396 302 404 284 q 412 267 412 248 q 412 228 404 211 q 396 194 384 180 q 370 168 353 160 q 336 152 316 152 l 316 154 l 212 154 l 198 166 l 198 330 l 212 343 l 316 343 z"},"K":{"x_min":0,"x_max":667,"ha":667,"o":"m 218 809 l 418 809 l 418 810 l 430 816 l 606 816 l 617 795 l 612 788 l 612 30 l 617 23 l 606 2 l 430 2 l 418 8 l 418 9 l 218 9 l 212 2 l 64 2 l 50 16 l 50 802 l 64 816 l 212 816 z m 224 796 l 224 530 l 408 796 z m 599 770 l 350 409 l 599 48 z m 408 22 l 224 288 l 224 22 z m 76 789 l 76 22 l 198 22 l 198 330 l 222 338 l 436 29 l 580 29 l 322 402 l 322 416 l 580 789 l 436 789 l 222 480 l 198 488 l 198 789 z"},"R":{"x_min":0,"x_max":692,"ha":692,"o":"m 414 272 q 457 282 494 307 q 531 331 558 365 q 585 398 600 440 q 615 481 615 526 q 615 580 594 627 q 574 674 538 710 q 502 746 455 766 q 408 787 354 787 l 76 787 l 76 26 l 198 26 l 198 252 l 212 266 l 230 266 l 241 261 l 442 26 l 599 26 l 406 251 z m 628 807 l 635 800 l 635 588 q 635 584 636 578 q 638 573 638 568 q 642 548 642 526 q 642 506 638 486 q 638 481 636 475 q 635 470 635 465 l 635 26 l 638 22 q 636 16 634 11 q 631 6 628 0 l 436 0 l 424 6 l 218 6 l 212 0 l 64 0 l 50 14 l 50 800 l 64 814 l 354 814 q 376 814 397 810 q 401 810 406 808 q 412 807 416 807 z m 440 252 l 622 42 l 622 421 q 596 359 550 316 q 504 272 440 252 z m 414 20 l 224 240 l 224 20 z m 460 794 q 516 771 557 729 q 599 688 622 632 l 622 794 z m 354 660 q 382 660 406 649 q 430 638 448 620 q 466 602 477 577 q 488 553 488 526 q 488 499 478 475 q 467 450 449 432 q 430 414 406 404 q 382 394 354 394 l 212 394 l 198 406 l 198 646 l 212 660 z m 354 633 l 224 633 l 224 420 l 354 420 q 376 420 396 428 q 415 437 430 452 q 444 466 452 485 q 461 504 461 526 q 461 549 453 568 q 444 588 430 602 q 416 616 396 625 q 377 633 354 633 z"},"T":{"x_min":0,"x_max":755,"ha":755,"o":"m 698 640 l 698 14 l 692 6 l 458 6 l 452 0 l 304 0 l 297 6 l 64 6 l 56 14 l 56 640 l 50 646 l 50 800 l 64 814 l 692 814 l 705 800 l 705 646 z m 685 633 l 464 633 l 464 20 l 685 20 z m 290 20 l 290 633 l 70 633 l 70 20 z m 76 787 l 76 660 l 303 660 l 316 646 l 316 26 l 438 26 l 438 646 l 452 660 l 678 660 l 678 787 z"},"P":{"x_min":0,"x_max":648,"ha":648,"o":"m 572 526 q 572 580 551 627 q 530 674 494 710 q 459 746 412 766 q 364 787 311 787 l 76 787 l 76 26 l 198 26 l 198 252 l 212 266 l 311 266 q 364 266 412 286 q 459 307 494 342 q 530 378 551 425 q 572 472 572 526 z m 584 807 l 592 800 l 592 588 q 592 584 593 578 q 594 573 595 568 q 598 548 598 526 q 598 506 595 486 q 594 481 593 475 q 592 470 592 465 l 592 14 l 584 6 l 218 6 l 212 0 l 64 0 l 50 14 l 50 800 l 64 814 l 311 814 q 332 814 354 810 q 358 810 363 808 q 368 807 372 807 z m 224 240 l 224 20 l 578 20 l 578 421 q 567 394 551 369 q 535 344 514 324 q 430 240 311 240 z m 416 794 q 472 771 514 729 q 556 688 578 632 l 578 794 z m 311 660 q 338 660 362 649 q 386 638 405 620 q 423 602 434 577 q 444 553 444 526 q 444 499 434 475 q 424 450 405 432 q 387 414 363 404 q 338 394 311 394 l 212 394 l 198 406 l 198 646 l 212 660 z m 311 633 l 224 633 l 224 420 l 311 420 q 333 420 352 428 q 372 437 386 452 q 400 466 409 485 q 418 504 418 526 q 418 549 409 568 q 401 588 386 602 q 372 616 353 625 q 334 633 311 633 z"},"|":{"x_min":0,"x_max":234,"ha":234,"o":"m 158 789 l 76 789 l 76 28 l 158 28 z m 64 816 l 158 816 l 184 802 l 184 16 l 172 2 l 64 2 l 50 16 l 50 802 z"},"t":{"x_min":0,"x_max":755,"ha":755,"o":"m 698 640 l 698 14 l 692 6 l 458 6 l 452 0 l 304 0 l 297 6 l 64 6 l 56 14 l 56 640 l 50 646 l 50 800 l 64 814 l 692 814 l 705 800 l 705 646 z m 685 633 l 464 633 l 464 20 l 685 20 z m 290 20 l 290 633 l 70 633 l 70 20 z m 76 787 l 76 660 l 303 660 l 316 646 l 316 26 l 438 26 l 438 646 l 452 660 l 678 660 l 678 787 z"},"M":{"x_min":0,"x_max":914,"ha":914,"o":"m 386 26 l 528 26 l 704 471 l 704 26 l 838 26 l 838 787 l 702 787 l 470 203 l 444 203 l 212 787 l 76 787 l 76 26 l 210 26 l 210 471 z m 230 807 l 684 807 l 692 814 l 850 814 l 864 800 l 864 14 l 850 0 l 692 0 l 684 6 l 546 6 l 536 0 l 377 0 l 368 6 l 230 6 l 222 0 l 64 0 l 50 14 l 50 800 l 64 814 l 222 814 z m 360 20 l 237 331 l 237 20 z m 238 794 l 457 244 l 676 794 z m 678 20 l 678 331 l 554 20 z"},"g":{"x_min":0,"x_max":914,"ha":914,"o":"m 64 807 l 383 807 q 388 807 394 808 q 400 810 405 810 q 431 814 457 814 q 482 814 509 810 q 514 810 520 808 q 526 807 530 807 l 850 807 l 858 800 l 858 478 l 864 471 l 864 404 q 864 392 863 380 q 862 368 860 356 q 860 350 859 344 q 858 339 858 334 l 858 14 l 850 6 l 530 6 q 525 6 518 5 q 512 4 506 3 q 482 0 457 0 q 432 0 407 3 q 402 4 395 5 q 388 6 383 6 l 64 6 l 56 14 l 56 333 q 56 338 55 344 q 54 350 53 355 q 50 380 50 406 q 50 433 53 458 q 54 464 55 470 q 56 476 56 480 l 56 800 z m 583 794 q 628 778 670 753 q 710 728 744 694 l 744 676 l 636 568 l 618 568 q 586 600 544 617 q 502 634 457 634 q 410 634 369 616 q 327 598 296 567 q 265 536 247 494 q 229 453 229 406 q 229 360 247 318 q 265 277 296 246 q 327 215 368 197 q 410 179 457 179 q 492 179 524 190 q 557 200 585 219 q 612 238 634 264 q 656 291 669 324 l 412 324 l 399 337 l 399 471 l 412 484 l 844 484 l 844 794 z m 844 280 q 830 234 804 194 q 778 153 745 119 q 711 86 670 60 q 628 35 583 20 l 844 20 z m 330 20 q 284 35 244 60 q 203 86 169 119 q 136 152 110 193 q 85 234 70 280 l 70 20 z m 70 533 q 84 578 110 619 q 136 660 170 694 q 204 728 244 753 q 285 778 330 794 l 70 794 z m 457 787 q 404 787 356 774 q 308 760 265 735 q 222 710 188 676 q 154 641 128 598 q 104 556 90 508 q 76 459 76 406 q 76 354 90 305 q 104 256 128 214 q 153 172 188 138 q 222 103 265 78 q 307 54 356 40 q 404 26 457 26 q 509 26 557 40 q 606 54 648 78 q 690 102 725 137 q 760 172 785 214 q 810 256 824 304 q 838 352 838 404 l 838 458 l 426 458 l 426 350 l 688 350 l 700 333 q 688 293 664 260 q 640 226 608 203 q 576 179 537 166 q 498 152 457 152 q 405 152 359 172 q 312 192 278 227 q 243 262 223 308 q 202 354 202 406 q 202 458 223 505 q 243 551 278 586 q 312 620 358 640 q 404 660 457 660 q 504 660 548 644 q 592 626 627 595 l 716 684 q 664 734 596 761 q 530 787 457 787 z"},"j":{"x_min":0,"x_max":546,"ha":546,"o":"m 60 807 l 322 807 l 328 814 l 482 814 l 496 800 l 496 248 q 496 228 492 210 q 492 205 490 200 q 489 194 489 190 l 489 14 l 482 6 l 306 6 q 302 6 297 5 q 292 4 288 3 q 278 2 267 0 q 257 0 247 0 q 226 0 206 3 q 202 4 197 5 q 192 6 188 6 l 60 6 l 54 14 l 54 91 l 50 96 l 52 114 l 54 116 l 54 800 z m 67 126 l 174 208 l 193 206 q 202 193 217 186 q 232 180 247 180 q 261 180 274 185 q 286 190 295 199 q 304 208 310 221 q 315 234 315 248 l 315 794 l 67 794 z m 469 788 l 342 788 l 342 248 q 342 228 334 211 q 326 194 314 181 q 300 168 283 160 q 266 153 246 153 q 208 153 180 180 l 79 102 q 110 66 154 46 q 198 26 246 26 q 292 26 332 44 q 373 62 404 92 q 434 122 452 162 q 469 202 469 248 z m 476 150 q 456 106 423 72 q 390 40 346 20 l 476 20 z m 100 46 q 83 60 67 76 l 67 20 l 138 20 q 118 32 100 46 z"},"i":{"x_min":0,"x_max":274,"ha":274,"o":"m 198 789 l 76 789 l 76 28 l 198 28 z m 64 816 l 210 816 l 224 802 l 224 16 l 212 2 l 64 2 l 50 16 l 50 802 z"},"y":{"x_min":0,"x_max":724,"ha":724,"o":"m 450 240 l 450 20 l 656 20 l 656 748 z m 443 6 l 436 0 l 288 0 l 282 6 l 62 6 l 56 14 l 56 782 l 50 796 l 62 814 l 232 814 l 242 807 l 483 807 l 493 814 l 662 814 l 674 796 l 669 782 l 669 14 l 662 6 z m 275 20 l 275 240 l 69 748 l 69 20 z m 248 794 l 362 513 l 476 794 z m 423 26 l 423 243 l 424 248 l 642 787 l 502 787 l 374 473 l 350 473 l 222 787 l 82 787 l 300 248 l 298 247 l 302 243 l 302 26 z"},"@":{"x_min":0,"x_max":597,"ha":597,"o":"m 298 0 q 277 0 258 3 q 254 4 248 5 q 243 6 239 6 l 64 6 l 56 14 l 56 190 q 56 194 55 200 q 54 206 53 210 q 50 228 50 248 q 50 267 53 286 q 54 290 55 296 q 56 302 56 306 l 56 558 l 50 566 q 50 584 53 604 q 54 608 55 614 q 56 619 56 623 l 56 800 l 64 807 l 241 807 q 245 807 250 808 q 256 810 260 810 q 279 814 298 814 q 317 814 336 810 q 340 810 346 808 q 352 807 356 807 l 534 807 l 540 800 l 540 623 q 540 619 542 614 q 543 610 544 606 q 546 596 546 586 q 546 576 546 566 l 546 13 l 532 0 z m 520 26 l 520 566 q 520 611 503 651 q 485 692 454 722 q 424 752 384 770 q 344 787 298 787 q 254 787 215 771 q 176 754 146 726 q 116 698 98 660 q 80 622 76 578 l 204 578 q 206 596 215 611 q 223 626 236 636 q 248 648 264 654 q 280 660 298 660 q 318 660 335 652 q 352 645 365 632 q 378 619 386 602 q 393 584 393 566 l 393 468 q 388 466 384 463 q 380 460 375 456 q 358 462 337 466 q 317 470 298 470 q 252 470 212 452 q 172 435 141 405 q 111 374 94 334 q 76 294 76 248 q 76 202 94 162 q 111 122 141 91 q 172 61 212 44 q 252 26 298 26 z m 70 346 q 84 380 108 408 q 132 436 162 456 q 192 476 226 486 q 261 496 298 496 q 316 496 333 494 q 350 492 367 487 l 367 566 q 367 580 362 592 q 356 604 346 613 q 337 622 325 628 q 312 634 298 634 q 284 634 272 628 q 260 623 250 614 q 241 604 236 592 q 230 580 230 566 l 217 552 l 70 552 z m 204 248 q 204 267 212 284 q 219 302 232 314 q 245 328 262 335 q 279 342 298 342 q 318 342 335 335 q 352 328 365 314 q 378 302 386 284 q 393 267 393 248 q 393 228 393 208 q 394 188 394 167 l 380 153 l 298 153 q 279 153 262 160 q 244 168 232 181 q 219 194 212 211 q 204 228 204 248 z m 298 180 l 367 180 l 367 248 q 367 262 362 275 q 356 287 346 296 q 337 306 324 311 q 312 316 298 316 q 284 316 272 311 q 260 306 250 296 q 241 287 236 274 q 230 262 230 248 q 230 234 236 221 q 241 208 250 199 q 260 190 272 185 q 284 180 298 180 z m 396 794 q 440 774 474 741 q 508 708 527 664 l 527 794 z m 70 664 q 89 708 122 741 q 156 774 200 794 l 70 794 z m 200 20 q 156 39 122 72 q 88 106 70 150 l 70 20 z"},".":{"x_min":0,"x_max":281,"ha":281,"o":"m 64 807 l 216 807 l 224 800 l 224 126 q 227 118 229 109 q 231 100 231 90 q 231 80 229 71 q 227 62 224 54 l 224 14 l 216 6 l 174 6 q 158 0 140 0 q 122 0 106 6 l 64 6 l 56 14 l 56 56 q 50 72 50 90 q 50 108 56 124 l 56 800 z m 70 147 q 82 164 101 172 q 120 180 140 180 q 182 180 210 148 l 210 794 l 70 794 z m 140 26 q 154 26 165 32 q 176 36 185 45 q 194 54 199 66 q 204 77 204 90 q 204 103 199 114 q 194 126 185 135 q 176 144 165 149 q 154 154 140 154 q 128 154 116 149 q 104 144 95 135 q 86 126 82 115 q 76 103 76 90 q 76 77 82 65 q 86 54 95 45 q 104 36 116 32 q 128 26 140 26 z m 84 20 l 84 20 q 80 22 77 26 q 73 30 70 34 l 70 20 z m 198 20 l 210 20 l 210 32 q 204 26 198 20 z"},"p":{"x_min":0,"x_max":648,"ha":648,"o":"m 572 526 q 572 580 551 627 q 530 674 494 710 q 459 746 412 766 q 364 787 311 787 l 76 787 l 76 26 l 198 26 l 198 252 l 212 266 l 311 266 q 364 266 412 286 q 459 307 494 342 q 530 378 551 425 q 572 472 572 526 z m 584 807 l 592 800 l 592 588 q 592 584 593 578 q 594 573 595 568 q 598 548 598 526 q 598 506 595 486 q 594 481 593 475 q 592 470 592 465 l 592 14 l 584 6 l 218 6 l 212 0 l 64 0 l 50 14 l 50 800 l 64 814 l 311 814 q 332 814 354 810 q 358 810 363 808 q 368 807 372 807 z m 224 240 l 224 20 l 578 20 l 578 421 q 567 394 551 369 q 535 344 514 324 q 430 240 311 240 z m 416 794 q 472 771 514 729 q 556 688 578 632 l 578 794 z m 311 660 q 338 660 362 649 q 386 638 405 620 q 423 602 434 577 q 444 553 444 526 q 444 499 434 475 q 424 450 405 432 q 387 414 363 404 q 338 394 311 394 l 212 394 l 198 406 l 198 646 l 212 660 z m 311 633 l 224 633 l 224 420 l 311 420 q 333 420 352 428 q 372 437 386 452 q 400 466 409 485 q 418 504 418 526 q 418 549 409 568 q 401 588 386 602 q 372 616 353 625 q 334 633 311 633 z"},"X":{"x_min":0,"x_max":733,"ha":733,"o":"m 649 26 l 440 400 l 440 413 l 649 787 l 510 787 l 378 552 l 355 552 l 224 787 l 84 787 l 294 413 l 294 400 l 84 26 l 224 26 l 355 262 l 378 262 l 510 26 z m 242 807 l 491 807 l 502 814 l 672 814 l 683 794 l 678 785 l 678 28 l 683 20 l 672 0 l 502 0 l 491 6 l 242 6 l 231 0 l 62 0 l 50 20 l 55 28 l 55 785 l 50 794 l 62 814 l 231 814 z m 483 794 l 250 794 l 366 586 z m 68 761 l 68 52 l 266 406 z m 250 20 l 483 20 l 366 228 z m 665 52 l 665 761 l 466 406 z"},"*":{"x_min":0,"x_max":372,"ha":372,"o":"m 238 794 l 238 768 l 266 784 l 284 779 l 302 749 l 302 794 z m 315 726 l 322 712 l 318 694 l 315 693 l 315 664 l 318 662 l 322 644 l 315 630 l 315 14 l 308 6 l 64 6 l 58 14 l 58 630 l 50 644 l 55 662 l 58 664 l 58 693 l 55 694 l 50 712 l 58 726 l 58 800 l 64 807 l 141 807 l 148 814 l 224 814 l 232 807 l 308 807 l 315 800 z m 302 685 l 290 678 l 302 672 z m 302 608 l 284 578 l 266 572 l 238 589 l 238 556 l 224 543 l 148 543 l 134 556 l 134 589 l 106 572 l 88 578 l 71 608 l 71 20 l 302 20 z m 71 672 l 83 678 l 71 685 z m 71 749 l 88 779 l 106 784 l 134 768 l 134 794 l 71 794 z m 212 745 l 212 788 l 161 787 l 161 745 l 141 734 l 105 754 l 80 711 l 116 690 l 116 667 l 80 646 l 105 602 l 141 624 l 161 612 l 161 570 l 212 570 l 212 612 l 232 624 l 268 602 l 293 646 l 256 667 l 256 690 l 293 711 l 268 754 l 232 734 z"},"Y":{"x_min":0,"x_max":724,"ha":724,"o":"m 450 240 l 450 20 l 656 20 l 656 748 z m 443 6 l 436 0 l 288 0 l 282 6 l 62 6 l 56 14 l 56 782 l 50 796 l 62 814 l 232 814 l 242 807 l 483 807 l 493 814 l 662 814 l 674 796 l 669 782 l 669 14 l 662 6 z m 275 20 l 275 240 l 69 748 l 69 20 z m 248 794 l 362 513 l 476 794 z m 423 26 l 423 243 l 424 248 l 642 787 l 502 787 l 374 473 l 350 473 l 222 787 l 82 787 l 300 248 l 298 247 l 302 243 l 302 26 z"},"c":{"x_min":0,"x_max":798,"ha":798,"o":"m 64 807 l 383 807 q 388 807 394 808 q 400 810 405 810 q 431 814 457 814 q 482 814 508 810 q 513 810 519 808 q 525 807 530 807 l 736 807 l 742 800 l 742 697 l 748 691 l 748 672 l 742 666 l 742 140 l 744 138 l 744 119 l 742 116 l 742 14 l 736 6 l 530 6 q 524 6 518 5 q 511 4 505 3 q 481 0 457 0 q 432 0 407 3 q 402 4 395 5 q 388 6 383 6 l 64 6 l 56 14 l 56 333 q 56 338 55 345 q 54 351 53 356 q 50 381 50 406 q 50 433 53 458 q 54 464 55 470 q 56 476 56 480 l 56 800 z m 583 794 q 624 780 660 759 q 696 738 728 710 l 728 794 z m 728 652 l 638 566 l 620 566 q 586 598 545 616 q 504 634 456 634 q 410 634 368 616 q 327 598 296 567 q 265 536 247 494 q 229 453 229 406 q 229 360 247 318 q 265 277 296 246 q 327 215 368 197 q 410 179 456 179 q 502 179 544 196 q 585 213 618 246 l 636 246 l 728 154 z m 728 104 q 697 75 660 54 q 624 34 584 20 l 728 20 z m 330 20 q 284 35 244 60 q 203 86 169 119 q 136 152 110 193 q 85 234 70 280 l 70 20 z m 70 533 q 84 578 110 619 q 136 660 170 694 q 204 728 244 753 q 285 778 330 794 l 70 794 z m 457 787 q 404 787 356 774 q 308 760 265 735 q 222 710 188 676 q 154 641 128 598 q 104 556 90 508 q 76 459 76 406 q 76 354 90 305 q 104 256 128 214 q 153 172 188 138 q 222 103 265 78 q 307 54 356 40 q 404 26 457 26 q 607 26 716 128 l 627 218 q 592 186 548 169 q 504 152 457 152 q 405 152 359 172 q 312 192 278 227 q 243 262 223 308 q 202 354 202 406 q 202 458 223 505 q 243 551 278 586 q 312 620 358 640 q 404 660 457 660 q 506 660 550 643 q 594 626 630 593 l 720 681 q 665 733 598 760 q 532 787 457 787 z"},"!":{"x_min":0,"x_max":281,"ha":281,"o":"m 64 814 l 216 814 l 230 800 l 230 303 l 224 296 l 224 126 q 227 118 229 109 q 231 100 231 90 q 231 80 229 71 q 227 62 224 54 l 224 14 l 216 6 l 174 6 q 158 0 140 0 q 122 0 106 6 l 64 6 l 56 14 l 56 56 q 50 72 50 90 q 50 108 56 124 l 56 296 l 50 303 l 50 800 z m 204 787 l 76 787 l 76 316 l 204 316 z m 210 290 l 71 290 l 70 147 q 82 164 101 172 q 120 180 140 180 q 182 180 210 148 z m 140 26 q 154 26 165 32 q 176 36 185 45 q 194 54 199 66 q 204 77 204 90 q 204 103 199 114 q 194 126 185 135 q 176 144 165 149 q 154 154 140 154 q 128 154 116 149 q 104 144 95 135 q 86 126 82 115 q 76 103 76 90 q 76 77 82 65 q 86 54 95 45 q 104 36 116 32 q 128 26 140 26 z m 84 20 l 84 20 q 80 22 77 26 q 73 30 70 34 l 70 20 z m 204 26 l 196 20 l 210 20 l 210 32 z"},"/":{"x_min":0,"x_max":558,"ha":558,"o":"m 476 787 l 376 787 l 82 26 l 183 26 z m 350 794 l 69 794 l 69 67 z m 209 20 l 485 20 l 485 736 z m 366 814 l 496 814 l 508 796 l 498 770 l 498 14 l 492 6 l 202 6 l 192 0 l 62 0 l 50 18 l 56 33 l 56 800 l 62 807 l 356 807 z"},"[":{"x_min":0,"x_max":377,"ha":377,"o":"m 76 787 l 76 26 l 300 26 l 300 154 l 212 154 l 198 166 l 198 646 l 212 660 l 300 660 l 300 787 z m 320 640 l 320 174 l 327 166 l 327 14 l 314 0 l 64 0 l 50 14 l 50 800 l 64 814 l 314 814 l 327 800 l 327 646 z m 307 633 l 224 633 l 224 180 l 307 180 z"},"6":{"x_min":0,"x_max":597,"ha":597,"o":"m 298 470 q 259 470 222 456 l 204 468 l 204 565 q 204 584 211 601 q 218 618 232 632 q 244 644 262 652 q 279 660 298 660 q 316 660 332 653 q 348 647 360 636 q 372 626 381 610 q 390 596 392 578 l 520 578 q 517 622 498 660 q 480 698 450 726 q 420 754 381 771 q 342 787 298 787 q 253 787 212 770 q 172 752 142 722 q 112 692 94 651 q 76 610 76 565 l 76 248 q 76 202 94 161 q 112 121 142 91 q 172 61 212 44 q 252 26 298 26 q 344 26 384 44 q 425 61 455 91 q 486 121 503 161 q 520 202 520 248 q 520 293 503 334 q 486 374 455 404 q 425 434 384 452 q 344 470 298 470 z m 526 794 l 396 794 q 440 774 474 741 q 508 707 526 663 z m 200 794 l 70 794 l 70 663 q 89 707 123 741 q 156 774 200 794 z m 70 150 l 70 20 l 200 20 q 156 39 122 72 q 89 105 70 150 z m 398 20 l 526 20 l 526 150 q 508 106 474 72 q 441 39 398 20 z m 526 346 l 526 552 l 380 552 l 367 565 q 367 579 362 592 q 356 604 347 613 q 338 622 325 628 q 312 633 298 633 q 284 633 272 628 q 259 622 250 613 q 240 604 235 592 q 230 579 230 565 l 230 486 q 246 492 264 494 q 280 496 298 496 q 336 496 371 486 q 406 475 435 456 q 464 436 488 408 q 512 380 526 346 z m 64 807 l 241 807 q 245 807 250 808 q 254 810 258 810 q 268 812 278 813 q 288 814 298 814 q 318 814 338 810 q 342 810 346 808 q 352 807 356 807 l 534 807 l 540 800 l 540 622 q 540 618 542 614 q 543 608 544 604 q 546 585 546 565 l 540 558 l 540 305 q 540 301 542 296 q 543 291 544 287 q 546 268 546 248 q 546 238 546 228 q 546 218 544 208 q 543 204 542 199 q 540 194 540 190 l 540 14 l 534 6 l 358 6 q 354 6 348 5 q 342 4 338 3 q 328 2 318 0 q 308 0 298 0 q 277 0 258 3 q 254 4 248 5 q 243 6 239 6 l 64 6 l 56 14 l 56 190 q 56 194 55 200 q 54 205 53 210 q 50 228 50 248 l 50 565 q 50 584 53 603 q 54 608 55 613 q 56 618 56 622 l 56 800 z m 298 316 q 284 316 272 310 q 260 305 250 296 q 241 286 236 274 q 230 262 230 248 q 230 233 235 221 q 240 208 250 199 q 259 190 271 185 q 284 180 298 180 q 312 180 325 185 q 337 190 346 200 q 356 209 362 221 q 367 234 367 248 q 367 262 362 274 q 356 286 346 296 q 337 305 325 310 q 312 316 298 316 z m 298 342 q 318 342 335 335 q 352 328 366 314 q 378 302 386 284 q 394 267 394 248 q 394 228 386 211 q 378 194 366 181 q 352 168 335 160 q 318 153 298 153 q 279 153 262 160 q 244 168 232 181 q 218 194 211 211 q 204 228 204 248 q 204 267 211 284 q 218 302 231 315 q 244 328 262 335 q 279 342 298 342 z"},"r":{"x_min":0,"x_max":692,"ha":692,"o":"m 414 272 q 457 282 494 307 q 531 331 558 365 q 585 398 600 440 q 615 481 615 526 q 615 580 594 627 q 574 674 538 710 q 502 746 455 766 q 408 787 354 787 l 76 787 l 76 26 l 198 26 l 198 252 l 212 266 l 230 266 l 241 261 l 442 26 l 599 26 l 406 251 z m 628 807 l 635 800 l 635 588 q 635 584 636 578 q 638 573 638 568 q 642 548 642 526 q 642 506 638 486 q 638 481 636 475 q 635 470 635 465 l 635 26 l 638 22 q 636 16 634 11 q 631 6 628 0 l 436 0 l 424 6 l 218 6 l 212 0 l 64 0 l 50 14 l 50 800 l 64 814 l 354 814 q 376 814 397 810 q 401 810 406 808 q 412 807 416 807 z m 440 252 l 622 42 l 622 421 q 596 359 550 316 q 504 272 440 252 z m 414 20 l 224 240 l 224 20 z m 460 794 q 516 771 557 729 q 599 688 622 632 l 622 794 z m 354 660 q 382 660 406 649 q 430 638 448 620 q 466 602 477 577 q 488 553 488 526 q 488 499 478 475 q 467 450 449 432 q 430 414 406 404 q 382 394 354 394 l 212 394 l 198 406 l 198 646 l 212 660 z m 354 633 l 224 633 l 224 420 l 354 420 q 376 420 396 428 q 415 437 430 452 q 444 466 452 485 q 461 504 461 526 q 461 549 453 568 q 444 588 430 602 q 416 616 396 625 q 377 633 354 633 z"},"2":{"x_min":0,"x_max":597,"ha":597,"o":"m 298 660 q 318 660 335 652 q 352 644 366 632 q 378 618 386 601 q 394 584 394 565 q 394 545 386 528 q 378 511 366 498 q 353 486 336 478 q 318 470 299 470 l 298 470 q 254 470 213 452 q 172 434 142 404 q 112 374 94 334 q 76 294 76 248 q 76 192 76 137 q 76 82 77 26 l 520 26 l 520 154 l 217 154 l 204 166 l 204 248 q 204 267 211 284 q 218 302 232 314 q 244 328 262 335 q 278 342 298 342 l 298 343 q 344 343 384 360 q 425 378 455 408 q 486 438 503 479 q 520 519 520 565 q 520 610 503 651 q 485 691 455 721 q 424 752 384 769 q 344 787 298 787 q 254 787 216 771 q 176 754 146 726 q 116 698 98 660 q 80 622 76 578 l 204 578 q 206 596 215 610 q 224 626 236 636 q 249 647 265 653 q 281 660 298 660 z m 526 794 l 396 794 q 440 774 474 741 q 508 707 526 663 z m 200 794 l 70 794 l 70 664 q 90 708 123 742 q 157 776 200 794 z m 70 552 l 70 347 q 85 382 108 409 q 132 436 161 456 q 191 476 226 486 q 260 496 298 496 l 298 497 q 312 497 325 502 q 338 508 347 517 q 356 526 362 538 q 367 550 367 565 q 367 579 362 592 q 356 604 347 613 q 338 622 325 628 q 312 633 298 633 q 284 633 272 628 q 259 622 250 613 q 240 604 235 592 q 230 579 230 565 l 216 552 z m 526 180 l 526 467 q 512 432 488 405 q 465 377 435 357 q 406 338 371 327 q 336 316 298 316 l 298 316 q 284 316 272 310 q 260 305 250 296 q 241 286 236 274 q 230 262 230 248 l 230 180 z m 58 558 l 50 565 q 50 576 51 586 q 52 596 54 606 q 54 610 56 616 q 58 621 58 625 l 58 800 l 64 807 l 241 807 q 245 807 250 808 q 254 810 258 810 q 268 812 278 813 q 288 814 298 814 q 318 814 338 810 q 342 810 346 808 q 352 807 356 807 l 534 807 l 540 800 l 540 622 q 540 618 542 614 q 543 608 544 604 q 546 585 546 565 q 546 555 546 545 q 546 535 544 525 q 543 521 542 516 q 540 512 540 508 l 540 174 l 546 166 l 546 14 l 534 0 l 64 0 l 50 14 l 50 248 q 50 258 51 268 q 52 279 54 290 q 54 294 56 298 q 58 304 58 308 z"},"{":{"x_min":0,"x_max":368,"ha":368,"o":"m 64 807 l 158 807 l 169 814 l 307 814 l 318 792 l 314 787 l 314 27 l 318 21 l 307 0 l 169 0 l 158 6 l 64 6 l 56 14 l 56 302 q 56 311 55 320 q 54 329 52 338 q 52 355 51 372 q 50 389 50 406 q 50 424 51 441 q 52 458 52 476 q 54 484 55 493 q 56 502 56 511 l 56 800 z m 300 768 q 248 686 220 595 q 192 504 192 406 q 192 310 220 218 q 248 126 300 46 z m 150 20 q 122 68 102 121 q 81 174 70 228 l 70 20 z m 70 585 q 81 640 102 692 q 123 744 150 794 l 70 794 z m 282 787 l 177 787 q 127 700 102 603 q 76 506 76 406 q 76 358 83 308 q 89 258 102 210 q 114 162 133 115 q 152 69 177 26 l 282 26 q 224 110 195 208 q 166 306 166 406 q 166 508 195 605 q 225 702 282 787 z"},"9":{"x_min":0,"x_max":597,"ha":597,"o":"m 394 344 l 394 248 q 394 228 386 211 q 378 194 366 180 q 352 168 335 160 q 318 152 299 152 q 282 152 266 159 q 250 165 237 176 q 224 187 216 202 q 208 217 205 234 l 78 234 q 80 191 99 153 q 118 114 147 86 q 177 58 216 42 q 255 26 299 26 q 344 26 385 44 q 425 61 455 91 q 486 121 503 161 q 520 202 520 248 l 520 565 q 520 610 503 651 q 485 691 455 721 q 424 752 384 769 q 344 787 298 787 q 253 787 212 770 q 172 752 142 722 q 112 692 94 651 q 76 610 76 565 q 76 519 94 479 q 112 438 142 408 q 172 378 212 360 q 252 343 298 343 q 318 343 338 347 q 358 350 376 357 z m 70 20 l 200 20 q 156 38 122 72 q 89 105 70 150 z m 396 20 l 527 20 l 527 150 q 508 106 474 72 q 440 38 396 20 z m 527 663 l 527 792 l 398 792 q 442 774 475 740 q 508 706 527 663 z m 200 792 l 70 792 l 70 663 q 88 707 122 740 q 156 774 200 792 z m 70 467 l 70 261 l 217 261 l 230 248 q 230 233 236 220 q 241 208 250 199 q 260 190 272 184 q 284 179 298 179 q 312 179 325 184 q 337 190 346 199 q 356 208 362 221 q 367 233 367 247 l 367 326 q 350 320 333 318 q 316 316 298 316 q 261 316 226 327 q 192 338 162 357 q 132 376 108 404 q 84 432 70 467 z m 534 6 l 356 6 q 352 6 346 4 q 341 3 336 2 q 318 0 298 0 q 279 0 260 2 q 256 3 250 4 q 245 6 241 6 l 64 6 l 56 13 l 56 190 q 56 194 55 200 q 54 205 53 210 q 50 228 50 248 l 56 254 l 56 508 q 56 512 55 517 q 54 522 53 527 q 50 546 50 565 q 50 584 53 603 q 54 608 55 613 q 56 618 56 622 l 56 800 l 64 806 l 239 806 q 243 806 248 808 q 254 809 258 810 q 277 814 298 814 q 308 814 319 812 q 329 812 339 810 q 343 809 348 808 q 354 806 358 806 l 534 806 l 540 799 l 540 622 q 540 618 542 613 q 544 608 544 604 q 547 584 547 564 l 547 248 q 547 238 546 228 q 546 218 544 208 q 544 204 542 199 q 540 194 540 190 l 540 13 z m 298 496 q 312 496 325 502 q 338 507 347 516 q 356 526 362 538 q 367 550 367 565 q 367 579 362 592 q 356 604 347 613 q 338 622 325 628 q 312 633 298 633 q 284 633 272 628 q 260 622 250 613 q 241 604 236 592 q 230 579 230 565 q 230 550 236 538 q 241 526 250 516 q 260 507 272 502 q 284 496 298 496 z m 299 470 q 280 470 262 478 q 245 485 232 498 q 219 511 212 528 q 204 546 204 565 q 204 584 212 601 q 219 618 232 632 q 245 644 262 652 q 280 660 299 660 q 318 660 335 652 q 352 644 366 632 q 378 618 386 601 q 394 584 394 565 q 394 546 386 528 q 378 510 366 498 q 353 485 336 478 q 318 470 299 470 z"}," ":{"x_min":0,"x_max":300,"ha":300,"o":""},"I":{"x_min":0,"x_max":274,"ha":274,"o":"m 198 789 l 76 789 l 76 28 l 198 28 z m 64 816 l 210 816 l 224 802 l 224 16 l 212 2 l 64 2 l 50 16 l 50 802 z"},"H":{"x_min":0,"x_max":755,"ha":755,"o":"m 678 787 l 557 787 l 557 484 l 544 470 l 212 470 l 198 484 l 198 787 l 76 787 l 76 26 l 198 26 l 198 330 l 212 343 l 544 343 l 557 330 l 557 26 l 678 26 z m 218 807 l 537 807 l 544 814 l 692 814 l 705 800 l 705 14 l 692 0 l 544 0 l 537 6 l 218 6 l 212 0 l 64 0 l 50 14 l 50 800 l 64 814 l 212 814 z m 530 20 l 530 316 l 224 316 l 224 20 z m 224 793 l 224 496 l 530 496 l 530 793 z"},"4":{"x_min":0,"x_max":596,"ha":596,"o":"m 237 308 l 276 308 l 276 396 z m 526 796 l 450 796 l 450 308 l 526 308 z m 272 796 l 70 796 l 70 342 z m 70 128 l 70 22 l 276 22 l 276 128 z m 450 22 l 526 22 l 526 128 l 450 128 z m 204 300 l 277 464 l 302 458 l 302 295 l 289 282 l 216 282 z m 56 312 l 56 802 l 64 809 l 279 809 l 289 816 l 437 816 l 444 809 l 533 809 l 540 802 l 540 302 l 546 295 l 546 142 l 540 134 l 540 16 l 533 9 l 444 9 l 437 2 l 289 2 l 282 9 l 64 9 l 56 16 l 56 134 l 50 142 l 50 295 q 50 298 52 304 q 55 310 56 312 z m 298 789 l 76 292 l 76 154 l 289 154 l 302 142 l 302 29 l 424 29 l 424 142 l 437 154 l 520 154 l 520 282 l 437 282 l 424 295 l 424 789 z"},"~":{"x_min":0,"x_max":494,"ha":494,"o":"m 76 364 q 80 374 88 385 q 94 396 104 405 q 114 414 124 421 q 136 427 148 427 q 161 427 176 418 q 192 408 208 394 q 224 380 242 364 q 260 348 280 334 q 299 320 319 310 q 340 301 361 301 q 392 301 418 321 l 418 484 q 412 474 406 463 q 399 452 391 442 q 382 433 372 427 q 362 420 348 420 q 334 420 318 430 q 303 439 286 453 q 270 467 252 483 q 234 500 215 514 q 196 528 175 537 q 154 546 133 546 q 118 546 103 541 q 88 536 76 526 z m 70 22 l 424 22 l 424 294 q 410 285 394 280 q 378 274 362 274 q 338 274 316 284 q 293 293 272 307 q 252 321 233 338 q 214 354 198 368 q 182 382 170 391 q 156 400 147 400 q 139 400 132 396 q 126 391 120 384 q 115 378 110 370 q 106 362 103 356 l 75 302 l 70 304 z m 424 544 l 424 796 l 70 796 l 70 554 q 98 572 132 572 q 156 572 178 563 q 200 554 221 540 q 242 526 261 510 q 280 494 296 480 q 312 466 325 456 q 338 447 348 447 q 355 447 362 453 q 370 459 377 468 q 384 478 391 489 q 398 500 403 512 q 408 522 413 532 q 417 540 420 545 z m 56 308 l 50 309 l 50 533 q 51 534 53 539 q 56 544 56 544 l 56 802 l 63 809 l 431 809 l 438 802 l 438 540 l 444 538 l 444 315 l 440 304 l 438 304 l 438 16 l 431 9 l 63 9 l 56 16 z"},"D":{"x_min":0,"x_max":755,"ha":755,"o":"m 692 807 l 698 800 l 698 480 q 698 475 700 468 q 701 462 702 456 q 705 432 705 406 q 705 382 702 358 q 702 352 700 346 q 698 339 698 333 l 698 14 l 692 6 l 372 6 q 366 6 360 5 q 354 4 348 3 q 323 0 298 0 l 64 0 l 50 14 l 50 800 l 64 814 l 298 814 q 324 814 350 810 q 356 810 361 808 q 367 807 372 807 z m 424 794 q 470 778 511 753 q 552 728 585 694 q 619 660 644 619 q 670 578 685 533 l 685 794 z m 685 280 q 670 234 644 193 q 619 152 586 119 q 552 86 511 60 q 470 35 424 20 l 685 20 z m 298 787 l 76 787 l 76 26 l 298 26 q 350 26 399 40 q 448 54 490 78 q 532 103 567 138 q 602 172 626 215 q 652 257 665 306 q 678 354 678 406 q 678 458 665 507 q 651 556 626 598 q 602 640 567 675 q 532 710 490 735 q 448 760 399 773 q 350 787 298 787 z m 236 179 l 298 179 q 344 179 386 197 q 428 215 458 246 q 490 277 508 318 q 526 360 526 406 q 526 453 508 494 q 490 536 458 567 q 428 598 386 616 q 344 634 298 634 l 236 634 z m 298 152 l 236 152 l 210 166 l 210 647 l 222 660 l 298 660 q 350 660 396 640 q 442 620 477 585 q 512 550 532 504 q 552 458 552 406 q 552 354 532 308 q 512 262 477 228 q 442 193 396 173 q 350 152 298 152 z"},"^":{"x_min":0,"x_max":568,"ha":568,"o":"m 364 814 l 374 807 l 506 807 l 512 800 l 512 464 l 518 450 l 512 441 l 512 14 l 506 6 l 62 6 l 56 14 l 56 441 l 50 450 l 56 464 l 56 800 l 62 807 l 194 807 l 204 814 z m 380 794 l 499 497 l 499 794 z m 499 431 l 348 431 l 336 440 l 284 570 l 232 440 l 220 431 l 69 431 l 69 20 l 499 20 z m 69 497 l 187 794 l 69 794 z m 355 787 l 213 787 l 82 458 l 211 458 l 272 610 l 296 610 l 357 458 l 486 458 z"},"0":{"x_min":0,"x_max":597,"ha":597,"o":"m 298 633 q 284 633 272 628 q 259 622 250 613 q 240 604 235 592 q 230 579 230 565 l 230 248 q 230 233 235 221 q 240 208 250 199 q 259 190 271 185 q 284 180 298 180 q 312 180 325 185 q 337 190 346 200 q 356 209 362 221 q 367 234 367 248 l 367 565 q 367 579 362 592 q 356 604 347 613 q 338 622 325 628 q 312 633 298 633 z m 527 796 l 391 796 q 437 778 472 743 q 508 708 527 663 z m 206 796 l 70 796 l 70 663 q 89 708 125 743 q 160 777 206 796 z m 70 150 l 70 22 l 194 22 q 152 42 120 74 q 88 106 70 150 z m 402 22 l 527 22 l 527 150 q 509 107 477 74 q 444 41 402 22 z m 64 809 l 252 809 q 255 809 259 810 q 263 811 266 812 q 274 812 282 813 q 290 814 298 814 q 307 814 315 813 q 323 812 332 812 q 335 811 339 810 q 342 809 346 809 l 534 809 l 540 802 l 540 622 q 540 618 542 614 q 544 608 544 604 q 547 585 547 565 l 547 248 q 547 238 546 228 q 546 218 544 208 q 544 204 542 199 q 540 194 540 190 l 540 16 l 534 9 l 366 9 q 362 9 356 7 q 350 5 345 4 q 322 0 298 0 q 274 0 252 4 q 247 5 241 7 q 234 9 230 9 l 64 9 l 56 16 l 56 190 q 56 194 55 199 q 54 204 53 208 q 50 228 50 248 l 50 565 q 50 585 53 604 q 54 608 55 614 q 56 619 56 623 l 56 802 z m 298 660 q 318 660 335 652 q 352 644 366 632 q 378 618 386 601 q 394 584 394 564 l 394 248 q 394 228 386 211 q 378 194 366 181 q 352 168 335 160 q 318 153 298 153 q 279 153 262 160 q 244 168 232 181 q 218 194 211 211 q 204 228 204 248 l 204 564 q 204 584 211 602 q 218 619 231 632 q 244 644 262 652 q 279 660 298 660 z m 520 248 l 520 565 q 520 610 503 651 q 485 691 455 721 q 424 752 384 769 q 344 787 298 787 q 253 787 212 770 q 172 752 142 722 q 112 692 94 651 q 76 610 76 565 l 76 248 q 76 202 94 161 q 112 121 142 91 q 172 61 212 44 q 252 26 298 26 q 345 26 386 43 q 426 60 456 90 q 486 120 503 160 q 520 201 520 248 z"},"F":{"x_min":0,"x_max":616,"ha":616,"o":"m 76 789 l 76 28 l 198 28 l 198 332 l 212 345 l 400 345 l 400 472 l 212 472 l 198 486 l 198 648 l 212 662 l 539 662 l 539 789 z m 559 642 l 559 16 l 552 9 l 218 9 l 212 2 l 64 2 l 50 16 l 50 802 l 64 816 l 552 816 l 566 802 l 566 648 z m 546 636 l 224 636 l 224 499 l 413 499 l 426 486 l 426 332 l 413 318 l 224 318 l 224 22 l 546 22 z"},"k":{"x_min":0,"x_max":667,"ha":667,"o":"m 218 809 l 418 809 l 418 810 l 430 816 l 606 816 l 617 795 l 612 788 l 612 30 l 617 23 l 606 2 l 430 2 l 418 8 l 418 9 l 218 9 l 212 2 l 64 2 l 50 16 l 50 802 l 64 816 l 212 816 z m 224 796 l 224 530 l 408 796 z m 599 770 l 350 409 l 599 48 z m 408 22 l 224 288 l 224 22 z m 76 789 l 76 22 l 198 22 l 198 330 l 222 338 l 436 29 l 580 29 l 322 402 l 322 416 l 580 789 l 436 789 l 222 480 l 198 488 l 198 789 z"},"u":{"x_min":0,"x_max":755,"ha":755,"o":"m 218 807 l 536 807 l 543 814 l 691 814 l 704 800 l 704 319 q 704 309 703 298 q 702 288 700 278 q 700 274 699 270 q 698 265 698 261 l 698 14 l 691 6 l 444 6 q 440 6 434 5 q 428 4 422 2 q 410 1 400 0 q 388 0 378 0 q 366 0 355 0 q 344 1 332 2 q 326 4 321 5 q 315 6 310 6 l 64 6 l 56 14 l 56 261 q 56 265 56 269 q 54 274 54 278 q 52 288 51 298 q 50 309 50 319 l 50 800 l 64 814 l 212 814 z m 685 214 q 673 180 654 150 q 634 120 610 96 q 585 70 555 51 q 524 32 491 20 l 685 20 z m 264 20 q 230 32 200 51 q 170 70 145 96 q 120 120 101 150 q 82 180 70 214 l 70 20 z m 224 794 l 224 319 q 224 289 238 263 q 251 236 272 216 q 294 196 322 185 q 349 174 378 174 q 406 174 434 185 q 461 196 482 216 q 504 236 517 263 q 530 289 530 319 l 530 794 z m 678 787 l 557 787 l 557 318 q 557 310 555 298 q 552 286 550 278 q 542 250 525 226 q 508 202 486 184 q 463 166 435 157 q 408 147 378 147 q 343 147 311 160 q 278 174 254 197 q 228 220 213 252 q 198 283 198 318 l 198 787 l 76 787 l 76 320 q 76 296 82 271 q 86 246 95 224 q 112 180 140 143 q 168 106 205 81 q 242 55 286 41 q 330 26 378 26 q 438 26 492 49 q 547 72 588 112 q 630 152 654 205 q 678 258 678 320 z"},"]":{"x_min":0,"x_max":377,"ha":377,"o":"m 70 180 l 152 180 l 152 633 l 70 633 z m 50 646 l 50 800 l 64 814 l 314 814 l 327 800 l 327 14 l 314 0 l 64 0 l 50 14 l 50 166 l 56 174 l 56 640 z m 76 787 l 76 660 l 166 660 l 179 646 l 179 166 l 166 154 l 76 154 l 76 26 l 300 26 l 300 787 z"},"U":{"x_min":0,"x_max":755,"ha":755,"o":"m 218 807 l 536 807 l 543 814 l 691 814 l 704 800 l 704 319 q 704 309 703 298 q 702 288 700 278 q 700 274 699 270 q 698 265 698 261 l 698 14 l 691 6 l 444 6 q 440 6 434 5 q 428 4 422 2 q 410 1 400 0 q 388 0 378 0 q 366 0 355 0 q 344 1 332 2 q 326 4 321 5 q 315 6 310 6 l 64 6 l 56 14 l 56 261 q 56 265 56 269 q 54 274 54 278 q 52 288 51 298 q 50 309 50 319 l 50 800 l 64 814 l 212 814 z m 685 214 q 673 180 654 150 q 634 120 610 96 q 585 70 555 51 q 524 32 491 20 l 685 20 z m 264 20 q 230 32 200 51 q 170 70 145 96 q 120 120 101 150 q 82 180 70 214 l 70 20 z m 224 794 l 224 319 q 224 289 238 263 q 251 236 272 216 q 294 196 322 185 q 349 174 378 174 q 406 174 434 185 q 461 196 482 216 q 504 236 517 263 q 530 289 530 319 l 530 794 z m 678 787 l 557 787 l 557 318 q 557 310 555 298 q 552 286 550 278 q 542 250 525 226 q 508 202 486 184 q 463 166 435 157 q 408 147 378 147 q 343 147 311 160 q 278 174 254 197 q 228 220 213 252 q 198 283 198 318 l 198 787 l 76 787 l 76 320 q 76 296 82 271 q 86 246 95 224 q 112 180 140 143 q 168 106 205 81 q 242 55 286 41 q 330 26 378 26 q 438 26 492 49 q 547 72 588 112 q 630 152 654 205 q 678 258 678 320 z"},"o":{"x_min":0,"x_max":914,"ha":914,"o":"m 64 807 l 383 807 q 388 807 394 808 q 400 810 405 810 q 431 814 457 814 q 482 814 508 810 q 513 810 519 808 q 525 807 530 807 l 850 807 l 858 800 l 858 480 q 858 475 859 468 q 860 462 861 456 q 864 432 864 406 q 864 382 861 358 q 860 352 859 346 q 858 339 858 333 l 858 14 l 850 6 l 530 6 q 524 6 518 5 q 511 4 505 3 q 481 0 457 0 q 432 0 407 3 q 402 4 395 5 q 388 6 383 6 l 64 6 l 56 14 l 56 333 q 56 338 55 345 q 54 351 53 356 q 50 381 50 406 q 50 433 53 458 q 54 464 55 470 q 56 476 56 480 l 56 800 z m 584 794 q 629 778 670 753 q 710 728 744 694 q 778 660 804 619 q 829 578 844 533 l 844 794 z m 844 280 q 829 234 804 194 q 778 153 744 119 q 711 86 670 60 q 629 35 584 20 l 844 20 z m 330 20 q 284 35 244 60 q 203 86 169 119 q 136 152 110 193 q 85 234 70 280 l 70 20 z m 70 533 q 84 578 110 619 q 136 660 170 694 q 204 728 244 753 q 285 778 330 794 l 70 794 z m 457 787 q 404 787 356 774 q 308 760 265 735 q 222 710 188 676 q 154 641 128 598 q 104 556 90 508 q 76 459 76 406 q 76 354 90 305 q 104 256 128 214 q 153 172 188 138 q 222 103 265 78 q 307 54 356 40 q 404 26 457 26 q 510 26 558 40 q 606 54 649 78 q 692 103 726 138 q 760 172 786 215 q 810 257 824 306 q 838 354 838 406 q 838 458 824 507 q 810 556 785 598 q 760 640 726 675 q 691 710 649 735 q 606 760 558 773 q 509 787 457 787 z m 457 660 q 509 660 555 640 q 602 620 636 585 q 670 550 691 504 q 711 458 711 406 q 711 354 691 308 q 670 262 636 228 q 602 193 555 173 q 509 152 457 152 q 405 152 359 172 q 312 192 278 227 q 243 262 223 308 q 202 354 202 406 q 202 458 223 505 q 243 551 278 586 q 312 620 358 640 q 404 660 457 660 z m 457 634 q 410 634 368 616 q 327 598 296 567 q 265 536 247 494 q 229 453 229 406 q 229 360 247 318 q 265 277 296 246 q 327 215 368 197 q 410 179 457 179 q 504 179 545 197 q 586 215 618 246 q 648 277 666 318 q 684 360 684 406 q 684 454 667 496 q 649 537 618 568 q 588 598 546 616 q 504 634 457 634 z"},"N":{"x_min":0,"x_max":826,"ha":826,"o":"m 234 807 l 596 807 l 604 814 l 763 814 l 776 800 l 776 14 l 763 0 l 604 0 l 592 6 l 230 6 l 222 0 l 64 0 l 50 14 l 50 800 l 64 814 l 222 814 l 234 808 z m 582 20 l 234 509 l 234 20 z m 244 794 l 590 303 l 590 794 z m 750 787 l 616 787 l 616 261 l 592 254 l 216 787 l 76 787 l 76 26 l 210 26 l 210 551 l 234 558 l 610 26 l 750 26 z"},"+":{"x_min":0,"x_max":398,"ha":398,"o":"m 160 298 l 160 229 l 237 229 l 237 298 l 250 312 l 320 312 l 320 394 l 250 394 l 237 407 l 237 477 l 160 477 l 160 407 l 146 394 l 76 394 l 76 312 l 146 312 z m 327 794 l 70 794 l 70 420 l 134 420 l 134 490 l 146 504 l 250 504 l 264 490 l 264 420 l 327 420 z m 70 20 l 327 20 l 327 286 l 264 286 l 264 216 l 250 202 l 146 202 l 134 216 l 134 286 l 70 286 z m 56 14 l 56 292 l 50 299 l 50 407 l 56 414 l 56 800 l 64 807 l 334 807 l 340 800 l 340 414 l 348 407 l 348 299 l 340 292 l 340 14 l 334 6 l 64 6 z"},"G":{"x_min":0,"x_max":914,"ha":914,"o":"m 64 807 l 383 807 q 388 807 394 808 q 400 810 405 810 q 431 814 457 814 q 482 814 509 810 q 514 810 520 808 q 526 807 530 807 l 850 807 l 858 800 l 858 478 l 864 471 l 864 404 q 864 392 863 380 q 862 368 860 356 q 860 350 859 344 q 858 339 858 334 l 858 14 l 850 6 l 530 6 q 525 6 518 5 q 512 4 506 3 q 482 0 457 0 q 432 0 407 3 q 402 4 395 5 q 388 6 383 6 l 64 6 l 56 14 l 56 333 q 56 338 55 344 q 54 350 53 355 q 50 380 50 406 q 50 433 53 458 q 54 464 55 470 q 56 476 56 480 l 56 800 z m 583 794 q 628 778 670 753 q 710 728 744 694 l 744 676 l 636 568 l 618 568 q 586 600 544 617 q 502 634 457 634 q 410 634 369 616 q 327 598 296 567 q 265 536 247 494 q 229 453 229 406 q 229 360 247 318 q 265 277 296 246 q 327 215 368 197 q 410 179 457 179 q 492 179 524 190 q 557 200 585 219 q 612 238 634 264 q 656 291 669 324 l 412 324 l 399 337 l 399 471 l 412 484 l 844 484 l 844 794 z m 844 280 q 830 234 804 194 q 778 153 745 119 q 711 86 670 60 q 628 35 583 20 l 844 20 z m 330 20 q 284 35 244 60 q 203 86 169 119 q 136 152 110 193 q 85 234 70 280 l 70 20 z m 70 533 q 84 578 110 619 q 136 660 170 694 q 204 728 244 753 q 285 778 330 794 l 70 794 z m 457 787 q 404 787 356 774 q 308 760 265 735 q 222 710 188 676 q 154 641 128 598 q 104 556 90 508 q 76 459 76 406 q 76 354 90 305 q 104 256 128 214 q 153 172 188 138 q 222 103 265 78 q 307 54 356 40 q 404 26 457 26 q 509 26 557 40 q 606 54 648 78 q 690 102 725 137 q 760 172 785 214 q 810 256 824 304 q 838 352 838 404 l 838 458 l 426 458 l 426 350 l 688 350 l 700 333 q 688 293 664 260 q 640 226 608 203 q 576 179 537 166 q 498 152 457 152 q 405 152 359 172 q 312 192 278 227 q 243 262 223 308 q 202 354 202 406 q 202 458 223 505 q 243 551 278 586 q 312 620 358 640 q 404 660 457 660 q 504 660 548 644 q 592 626 627 595 l 716 684 q 664 734 596 761 q 530 787 457 787 z"},"q":{"x_min":0,"x_max":914,"ha":914,"o":"m 64 807 l 383 807 q 388 807 394 808 q 400 810 405 810 q 431 814 457 814 q 482 814 508 810 q 513 810 519 808 q 525 807 530 807 l 850 807 l 858 800 l 858 480 q 858 475 859 468 q 860 462 861 456 q 864 432 864 406 q 864 382 861 358 q 860 352 859 346 q 858 339 858 333 l 858 120 l 860 117 l 860 98 l 858 96 l 858 14 l 850 6 l 768 6 l 766 4 l 746 4 l 744 6 l 530 6 q 524 6 518 5 q 511 4 505 3 q 481 0 457 0 q 432 0 407 3 q 402 4 395 5 q 388 6 383 6 l 64 6 l 56 14 l 56 333 q 56 338 55 345 q 54 351 53 356 q 50 381 50 406 q 50 433 53 458 q 54 464 55 470 q 56 476 56 480 l 56 800 z m 584 794 q 629 778 670 753 q 710 728 744 694 q 778 660 804 619 q 829 578 844 533 l 844 794 z m 844 280 q 836 254 824 229 q 812 204 796 182 l 844 133 z m 844 82 l 782 20 l 844 20 z m 730 20 l 682 68 q 658 53 634 41 q 610 28 584 20 z m 330 20 q 284 35 244 60 q 203 86 169 119 q 136 152 110 193 q 85 234 70 280 l 70 20 z m 70 533 q 84 578 110 619 q 136 660 170 694 q 204 728 244 753 q 285 778 330 794 l 70 794 z m 457 787 q 404 787 356 774 q 308 760 265 735 q 222 710 188 676 q 154 641 128 598 q 104 556 90 508 q 76 459 76 406 q 76 354 90 305 q 104 256 128 214 q 153 172 188 138 q 222 103 265 78 q 307 54 356 40 q 404 26 457 26 q 516 26 572 44 q 628 62 676 96 l 694 94 l 756 32 l 832 108 l 769 170 l 768 188 q 802 236 820 292 q 838 348 838 406 q 838 458 824 507 q 810 556 785 598 q 760 640 726 675 q 691 710 649 735 q 606 760 558 773 q 509 787 457 787 z m 552 425 l 664 313 q 674 334 679 359 q 684 384 684 406 q 684 453 666 494 q 648 536 618 567 q 586 598 545 616 q 504 634 457 634 q 410 634 368 616 q 327 598 296 567 q 265 536 247 494 q 229 453 229 406 q 229 360 247 318 q 265 277 296 246 q 327 215 368 197 q 410 179 457 179 q 481 179 504 184 q 528 189 550 199 l 438 312 l 438 330 l 534 425 z m 658 281 l 542 397 l 467 321 l 582 205 l 580 184 q 552 168 520 160 q 489 152 457 152 q 405 152 359 172 q 312 192 278 227 q 243 262 223 308 q 202 354 202 406 q 202 458 223 505 q 243 551 278 586 q 312 620 358 640 q 404 660 457 660 q 509 660 555 640 q 602 620 636 585 q 670 550 691 504 q 711 458 711 406 q 711 342 680 284 z"},"d":{"x_min":0,"x_max":755,"ha":755,"o":"m 692 807 l 698 800 l 698 480 q 698 475 700 468 q 701 462 702 456 q 705 432 705 406 q 705 382 702 358 q 702 352 700 346 q 698 339 698 333 l 698 14 l 692 6 l 372 6 q 366 6 360 5 q 354 4 348 3 q 323 0 298 0 l 64 0 l 50 14 l 50 800 l 64 814 l 298 814 q 324 814 350 810 q 356 810 361 808 q 367 807 372 807 z m 424 794 q 470 778 511 753 q 552 728 585 694 q 619 660 644 619 q 670 578 685 533 l 685 794 z m 685 280 q 670 234 644 193 q 619 152 586 119 q 552 86 511 60 q 470 35 424 20 l 685 20 z m 298 787 l 76 787 l 76 26 l 298 26 q 350 26 399 40 q 448 54 490 78 q 532 103 567 138 q 602 172 626 215 q 652 257 665 306 q 678 354 678 406 q 678 458 665 507 q 651 556 626 598 q 602 640 567 675 q 532 710 490 735 q 448 760 399 773 q 350 787 298 787 z m 236 179 l 298 179 q 344 179 386 197 q 428 215 458 246 q 490 277 508 318 q 526 360 526 406 q 526 453 508 494 q 490 536 458 567 q 428 598 386 616 q 344 634 298 634 l 236 634 z m 298 152 l 236 152 l 210 166 l 210 647 l 222 660 l 298 660 q 350 660 396 640 q 442 620 477 585 q 512 550 532 504 q 552 458 552 406 q 552 354 532 308 q 512 262 477 228 q 442 193 396 173 q 350 152 298 152 z"},"1":{"x_min":0,"x_max":396,"ha":396,"o":"m 155 796 l 70 796 l 70 726 z m 70 510 l 70 22 l 171 22 l 170 592 l 72 510 z m 56 518 l 50 520 l 50 702 q 51 704 53 709 q 55 714 56 714 l 56 802 l 64 809 l 171 809 q 172 811 177 813 q 182 816 184 816 l 332 816 l 345 802 l 345 16 l 332 2 l 184 2 l 178 9 l 64 9 l 56 16 z m 76 549 l 176 630 l 198 620 l 198 28 l 318 28 l 318 789 l 189 789 l 76 696 z"},"5":{"x_min":0,"x_max":597,"ha":597,"o":"m 526 424 l 526 633 l 230 633 l 230 573 l 298 573 q 336 573 370 562 q 406 552 435 533 q 464 514 488 486 q 511 458 526 424 z m 540 384 q 540 380 541 375 q 542 370 544 366 q 546 356 546 345 q 547 334 547 324 l 547 248 q 547 238 546 227 q 546 216 544 206 q 542 202 541 197 q 540 192 540 188 l 540 14 l 533 6 l 358 6 q 354 6 348 5 q 343 4 339 3 q 329 2 319 0 q 308 0 298 0 q 277 0 258 3 q 254 4 248 5 q 243 6 239 6 l 64 6 l 56 14 l 56 190 q 56 194 55 199 q 54 204 53 208 q 51 218 50 228 q 50 238 50 248 l 56 254 l 56 400 l 50 406 l 50 800 l 64 814 l 533 814 l 546 800 l 546 646 l 540 640 z m 526 148 q 508 104 474 72 q 442 38 398 20 l 526 20 z m 200 20 q 156 39 122 72 q 89 105 70 150 l 70 20 z m 70 261 l 216 261 l 230 248 q 230 233 235 221 q 240 208 250 199 q 259 190 271 185 q 284 180 298 180 q 312 180 325 185 q 337 190 346 200 q 356 209 362 221 q 367 234 367 248 l 367 324 q 367 338 362 351 q 356 363 346 372 q 337 382 325 388 q 312 393 298 393 l 70 394 z m 217 546 l 204 560 l 204 646 l 217 660 l 520 660 l 520 787 l 76 787 l 76 420 l 298 420 q 318 420 335 412 q 352 404 366 392 q 378 378 386 361 q 394 344 394 324 l 394 248 q 394 228 386 211 q 378 194 366 181 q 352 168 335 160 q 318 153 298 153 q 281 153 265 159 q 249 166 236 176 q 224 188 215 202 q 207 217 204 234 l 77 234 q 80 191 98 153 q 117 114 147 86 q 176 58 216 42 q 254 26 298 26 q 344 26 384 44 q 425 61 455 91 q 486 121 503 161 q 520 202 520 248 l 520 324 q 520 371 503 412 q 486 452 456 482 q 426 512 386 529 q 345 546 298 546 z"}}}
